<?xml version="1.0" encoding="utf-8"?>
<!-- Generator: Adobe Illustrator 25.4.1, SVG Export Plug-In . SVG Version: 6.00 Build 0)  -->
<svg version="1.1" id="Layer_1" xmlns="http://www.w3.org/2000/svg" xmlns:xlink="http://www.w3.org/1999/xlink" x="0px" y="0px"
	 viewBox="0 0 943.7 480" style="enable-background:new 0 0 943.7 480;" xml:space="preserve">
<style type="text/css">
	.st0{clip-path:url(#SVGID_00000137851919651812820620000012045718603062535051_);}
	.st1{fill:#FFFFFF;}
	.st2{fill:#312783;}
	.st3{fill:#E30613;}
</style>
<g>
	<defs>
		<rect id="SVGID_1_" width="943.7" height="480"/>
	</defs>
	<clipPath id="SVGID_00000029030058153172124010000009254608279008596146_">
		<use xlink:href="#SVGID_1_"  style="overflow:visible;"/>
	</clipPath>
	<g style="clip-path:url(#SVGID_00000029030058153172124010000009254608279008596146_);">
		<path class="st1" d="M51.9,452.3H16.3v21.9c-0.1,0.8,0.2,1.5,0.7,2.1c0.6,0.6,1.4,1,2.2,1.1v1.4H0v-1.4c0.9-0.2,1.6-0.6,2.3-1.2
			c0.5-0.6,0.7-1.3,0.6-2v-51.8c0.1-0.7-0.2-1.5-0.6-2c-0.6-0.6-1.4-1-2.3-1.2v-1.4h19.2v1.4c-0.8,0.2-1.6,0.5-2.3,1.1
			c-0.4,0.6-0.7,1.3-0.6,2.1v19.7h35.6v-19.7c0-0.7-0.2-1.5-0.6-2.1c-0.6-0.6-1.4-1-2.3-1.1v-1.4h19.2v1.4c-0.9,0.2-1.6,0.6-2.3,1.2
			c-0.5,0.6-0.7,1.3-0.6,2v51.8c-0.1,0.7,0.2,1.5,0.6,2c0.6,0.6,1.4,1,2.3,1.2v1.4H49v-1.4c0.8-0.2,1.6-0.5,2.2-1.1
			c0.5-0.6,0.7-1.3,0.7-2.1V452.3z"/>
		<path class="st1" d="M127.3,463.3h-28l-4.2,8.6c-0.5,0.9-0.8,1.9-0.9,2.9c0,1.3,1,2.2,3,2.7v1.4H77.1v-1.4c1-0.1,2-0.5,2.8-1.2
			c0.9-1.1,1.6-2.2,2.2-3.5l22.7-47c0.6-1.1,1-2.3,1.1-3.6c0-1.4-0.9-2.4-2.6-3v-1.4h21.9v1.4c-1.8,0.5-2.7,1.4-2.7,2.7
			c0.1,1,0.4,2.1,0.9,3l23.5,47.1c0.7,1.5,1.5,2.9,2.6,4.1c0.8,0.8,1.9,1.3,3,1.4v1.4h-22.9v-1.4c2-0.3,3-1.2,3-2.8
			c-0.1-1-0.4-1.9-0.9-2.8L127.3,463.3z M123.4,455l-9.9-21.6l-10.3,21.8L123.4,455z"/>
		<path class="st1" d="M182.8,461.2l16.3-35.7c0.6-1.1,0.9-2.3,1-3.5c0-1.3-1-2.1-3-2.5v-1.4h21.1v1.4c-1,0-2,0.4-2.8,1.1
			c-1.1,1.6-2,3.3-2.7,5.1l-21.4,45.9c-0.6,1.2-1.1,2.5-1.3,3.8c0,1.5,0.9,2.4,2.8,2.7v1.4h-21.2v-1.4c1.9-0.3,2.8-1.2,2.8-2.7
			c-0.2-1.3-0.7-2.6-1.3-3.8l-21.4-45.9c-0.7-1.8-1.6-3.5-2.7-5.1c-0.7-0.7-1.7-1.1-2.7-1.1v-1.4h21.9v1.4c-2,0.4-3,1.2-3,2.5
			c0.1,1.2,0.4,2.4,1,3.5L182.8,461.2z"/>
		<path class="st1" d="M309.6,423.2l-7.4,14.4l-1.3-0.7c0-0.2,0-0.5,0-0.7c0-1-0.9-2.1-2.6-3.3c-5.6-3.7-12.1-5.7-18.9-5.6
			c-2.9,0-5.7,0.4-8.5,1.2c-1.6,0.5-3.1,1.5-4.3,2.7c-1,1-1.6,2.4-1.6,3.9c0,2.3,1.4,3.9,4.2,4.7c3.1,0.6,6.2,1.1,9.3,1.3l7.1,0.7
			c3.5,0.3,6.9,0.9,10.3,1.8c2.5,0.7,4.8,1.8,6.9,3.3c2.2,1.5,3.9,3.4,5.1,5.8c1.2,2.4,1.8,5,1.7,7.6c0,4.2-1.4,8.3-4.2,11.5
			c-3.2,3.4-7.3,5.8-11.8,6.8c-4.2,1.1-8.5,1.7-12.8,1.6c-8.5-0.1-16.9-2.2-24.4-6.1c-1-0.5-2-0.9-3-1.2c-0.6,0.3-1.2,0.7-1.6,1.2
			l-1.3-0.7l6.4-15.1l1.3,0.6v0.6c0,0.7,0.2,1.4,0.6,2.1c0.3,0.6,0.8,1.2,1.4,1.7c2.7,2.1,5.8,3.6,9.1,4.5c3.8,1.2,7.7,1.8,11.7,1.9
			c3.5,0.1,7.1-0.6,10.3-2c1.5-0.7,2.8-1.7,3.8-3c0.9-1.1,1.4-2.5,1.4-3.9c0-1-0.3-1.9-0.9-2.7c-0.6-0.8-1.4-1.4-2.4-1.6
			c-3-0.9-6.1-1.5-9.3-1.7l-6.9-0.7c-3.3-0.3-6.6-0.7-9.9-1.4c-2-0.5-3.9-1.1-5.8-2c-2.7-1.3-5-3.5-6.5-6.1
			c-1.4-2.6-2.2-5.4-2.1-8.4c-0.1-2.4,0.3-4.7,1.2-6.9c0.9-2.2,2.2-4.2,3.9-5.9c5.9-4.9,13.5-7.3,21.2-6.7c3.7,0,7.4,0.4,11,1.2
			c4.4,1.1,8.6,2.6,12.7,4.4c1,0.5,2.1,0.8,3.2,1c0.8-0.1,1.6-0.4,2.2-1L309.6,423.2z"/>
		<path class="st1" d="M373.6,452.3H338v21.9c0,0.8,0.2,1.5,0.7,2.1c0.6,0.6,1.4,1,2.3,1.1v1.4h-19.3v-1.4c0.9-0.2,1.6-0.6,2.3-1.2
			c0.5-0.6,0.7-1.3,0.6-2v-51.8c0.1-0.7-0.2-1.5-0.6-2c-0.6-0.6-1.4-1-2.3-1.2v-1.4h19.3v1.4c-0.8,0.1-1.6,0.5-2.3,1.1
			c-0.5,0.6-0.7,1.3-0.7,2.1v19.7h35.6v-19.7c0-0.7-0.2-1.5-0.6-2.1c-0.6-0.6-1.4-1-2.3-1.1v-1.4h19.2v1.4c-0.9,0.2-1.6,0.6-2.3,1.2
			c-0.5,0.6-0.7,1.3-0.6,2v51.8c-0.1,0.7,0.2,1.5,0.6,2c0.6,0.6,1.4,1,2.3,1.2v1.4h-19.2v-1.4c0.8-0.2,1.6-0.5,2.2-1.1
			c0.5-0.6,0.7-1.3,0.7-2.1V452.3z"/>
		<path class="st1" d="M406.7,474.2v-51.8c0-0.4,0-0.7-0.1-1.1c-0.1-0.3-0.3-0.7-0.5-1c-0.6-0.6-1.4-1-2.3-1.2v-1.4h19.3v1.4
			c-0.8,0.1-1.6,0.5-2.3,1.1c-0.4,0.6-0.7,1.3-0.6,2.1v51.8c0,0.8,0.2,1.5,0.6,2.1c0.6,0.6,1.4,1,2.3,1.1v1.4h-19.3v-1.4
			c0.9-0.1,1.6-0.6,2.3-1.2c0.2-0.3,0.4-0.6,0.5-1C406.7,474.9,406.7,474.6,406.7,474.2z"/>
		<path class="st1" d="M453.2,454.1v20.4c0,0.8,0.2,1.5,0.7,2.1c0.6,0.6,1.4,1,2.3,1.1v1.4H437v-1.4c0.9-0.2,1.6-0.6,2.3-1.2
			c0.5-0.6,0.7-1.3,0.6-2v-52c0.1-0.7-0.2-1.5-0.6-2.1c-0.6-0.6-1.4-1-2.3-1.2v-1.4h38.5c3.6-0.1,7.2,0.2,10.7,0.9
			c2.5,0.6,4.9,1.6,7,3.1c2.2,1.5,4,3.6,5.1,6c1.2,2.6,1.8,5.3,1.7,8.2c0.1,3.9-1.1,7.6-3.3,10.8c-1.9,2.6-4.6,4.6-7.7,5.7
			c-4.3,1.3-8.8,1.8-13.3,1.7H453.2z M453.2,443.9h20.6c2.9,0.2,5.9-0.3,8.6-1.3c1.1-0.6,2-1.6,2.6-2.7c0.6-1.3,1-2.7,1-4.1
			c0-1.4-0.3-2.8-1-4.1c-0.6-1.1-1.5-2.1-2.6-2.7c-2.7-1.1-5.7-1.5-8.6-1.3h-20.6V443.9z"/>
		<path class="st1" d="M526.9,454.1v20.4c0,0.7,0.2,1.5,0.6,2.1c0.6,0.6,1.4,1,2.3,1.1v1.4h-19.3v-1.4c0.9-0.1,1.6-0.6,2.3-1.2
			c0.2-0.3,0.4-0.6,0.5-1c0.1-0.4,0.2-0.7,0.1-1.1v-52c0-0.4,0-0.8-0.1-1.1c-0.1-0.4-0.3-0.7-0.5-1c-0.6-0.6-1.4-1-2.3-1.2v-1.4H549
			c3.6-0.1,7.2,0.2,10.7,0.9c2.5,0.5,4.9,1.6,7,3.1c2.2,1.5,4,3.6,5.1,6c1.2,2.6,1.8,5.3,1.7,8.2c0.1,3.9-1.1,7.6-3.3,10.8
			c-1.9,2.6-4.6,4.6-7.7,5.7c-4.3,1.3-8.8,1.8-13.3,1.7H526.9z M526.9,443.9h20.6c2.9,0.2,5.9-0.3,8.6-1.3c1.1-0.6,2-1.6,2.6-2.7
			c0.6-1.3,1-2.7,1-4.1c0-1.4-0.3-2.8-1-4.1c-0.6-1.1-1.5-2.1-2.6-2.7c-2.7-1.1-5.7-1.5-8.6-1.3h-20.6V443.9z"/>
		<path class="st1" d="M587,474.2v-51.8c0.1-0.7-0.2-1.5-0.6-2c-0.6-0.6-1.4-1-2.3-1.2v-1.4h19.2v1.4c-0.8,0.1-1.6,0.5-2.3,1.1
			c-0.4,0.6-0.7,1.3-0.6,2.1v51.8c-0.1,0.8,0.2,1.5,0.7,2.1c0.6,0.6,1.4,1,2.2,1.1v1.4h-19.2v-1.4c0.9-0.2,1.6-0.6,2.3-1.2
			C586.8,475.7,587,474.9,587,474.2z"/>
		<path class="st1" d="M632.4,437.1v37.1c-0.1,0.7,0.2,1.5,0.6,2.1c0.6,0.6,1.4,1,2.3,1.2v1.4h-18.3v-1.4c0.9-0.1,1.6-0.6,2.3-1.2
			c0.2-0.3,0.4-0.6,0.5-1c0.1-0.4,0.2-0.7,0.1-1.1v-51.8c0-0.4,0-0.7-0.1-1.1c-0.1-0.3-0.3-0.7-0.5-1c-0.6-0.6-1.4-1-2.3-1.2v-1.4
			h21v1.4c-1.3,0.3-2,1-2,2c0.1,0.9,0.6,1.8,1.3,2.4l34.2,35.2v-36.5c0.1-0.7-0.2-1.5-0.6-2c-0.6-0.6-1.4-1-2.3-1.2v-1.4h18.1v1.4
			c-0.9,0.2-1.6,0.6-2.3,1.2c-0.5,0.6-0.7,1.3-0.6,2v51.8c-0.1,0.7,0.2,1.5,0.6,2.1c0.6,0.6,1.4,1,2.3,1.2v1.4h-19.4v-1.4
			c1.3-0.3,1.9-0.9,1.9-1.9c0-1-0.7-1.6-2.2-3.1L632.4,437.1z"/>
		<path class="st1" d="M755.1,457h-15.4c-0.8-0.1-1.5,0.2-2.1,0.6c-0.6,0.6-1,1.4-1.1,2.2h-1.2v-14.2h1.4c0.2,0.8,0.6,1.6,1.1,2.2
			c0.6,0.4,1.4,0.7,2.1,0.6h29.3v1.4c-0.9,0.2-1.6,0.6-2.3,1.2c-0.5,0.6-0.7,1.3-0.7,2.1v12.5c0,0.8,0.2,1.5,0.7,2.1
			c0.6,0.6,1.4,1,2.3,1.2v1.1c-10.3,6.3-22,9.8-34.1,10.2c-8.7,0.4-17.2-2.1-24.4-7c-3.6-2.9-6.5-6.5-8.6-10.6
			c-2-4.1-3.2-8.6-3.3-13.2c-0.1-4.6,0.8-9.1,2.6-13.3c1.8-4.2,4.5-8,8-11c7.6-5.8,17.1-8.7,26.6-8.2c3.3,0,6.7,0.3,10,0.9
			c3.6,0.8,7.2,1.9,10.6,3.3c1.4,0.6,2.9,1.1,4.4,1.2c0.8-0.1,1.6-0.4,2.2-1l1.3,0.7l-7.2,14.6l-1.3-0.7c0-0.7-0.1-1.4-0.4-2.1
			c-0.4-0.6-1-1.2-1.6-1.6c-2.5-1.7-5.2-2.8-8.1-3.5c-3.3-1-6.8-1.5-10.3-1.5c-5.7-0.2-11.3,1.6-15.8,5.1c-2.4,2-4.2,4.4-5.5,7.2
			c-1.2,2.8-1.8,5.8-1.7,8.9c-0.1,2.9,0.6,5.9,1.8,8.5c1.2,2.7,3.1,5,5.4,6.9c4.7,3.8,10.7,5.8,16.9,5.5c3.5,0,6.9-0.4,10.3-1.2
			c3-0.7,5.9-1.7,8.6-3.2L755.1,457z"/>
		<path class="st1" d="M853.4,463.3h-28l-4.2,8.6c-0.5,0.9-0.8,1.9-0.8,2.9c0,1.3,1,2.2,3,2.7v1.4h-20.6v-1.4c1-0.1,2-0.6,2.7-1.2
			c0.9-1.1,1.6-2.2,2.2-3.5l22.7-47c0.6-1.1,1-2.3,1.1-3.6c0-1.4-0.9-2.4-2.6-3v-1.4h21.9v1.4c-1.8,0.5-2.7,1.4-2.7,2.7
			c0.1,1,0.4,2.1,0.9,3l23.5,47.1c0.7,1.5,1.5,2.9,2.6,4.1c0.8,0.8,1.9,1.3,3,1.4v1.4h-22.7v-1.4c2-0.3,3-1.2,3-2.8
			c-0.1-1-0.4-1.9-0.9-2.8L853.4,463.3z M849.6,455l-10-21.6l-10.3,21.8L849.6,455z"/>
		<path class="st1" d="M943.7,423.2l-7.4,14.4l-1.3-0.7c0-0.2,0-0.5,0-0.7c0-1-0.9-2.1-2.6-3.3c-5.6-3.7-12.1-5.7-18.9-5.6
			c-2.9,0-5.7,0.4-8.5,1.2c-1.6,0.5-3.1,1.5-4.3,2.7c-1,1-1.6,2.4-1.7,3.9c0,2.3,1.4,3.9,4.2,4.7c3.1,0.6,6.2,1.1,9.3,1.3l7.1,0.7
			c3.5,0.3,6.9,0.9,10.3,1.8c2.5,0.7,4.8,1.8,6.9,3.3c2.2,1.5,3.9,3.4,5.1,5.8c1.5,3.1,2,6.5,1.6,9.9c-0.4,3.4-1.8,6.6-4.1,9.2
			c-3.1,3.4-7.2,5.8-11.8,6.8c-4.2,1.1-8.5,1.7-12.8,1.6c-8.4-0.1-16.7-2.1-24.2-5.8c-1-0.5-2-0.9-3-1.2c-0.7,0.2-1.3,0.5-1.8,1
			l-1.3-0.7l6.7-15l1.3,0.6v0.6c0,0.7,0.2,1.4,0.6,2.1c0.3,0.6,0.8,1.2,1.4,1.7c2.7,2.1,5.8,3.6,9.1,4.5c3.8,1.2,7.7,1.8,11.6,1.9
			c3.5,0.1,7.1-0.6,10.3-2c1.5-0.7,2.8-1.7,3.8-3c0.9-1.1,1.4-2.5,1.4-3.9c0-1-0.3-1.9-0.9-2.7c-0.6-0.8-1.4-1.4-2.4-1.6
			c-3-0.9-6.1-1.5-9.3-1.7l-6.9-0.7c-3.3-0.3-6.6-0.7-9.9-1.4c-2-0.4-3.9-1.1-5.8-2c-2.7-1.3-5-3.4-6.5-6.1
			c-1.5-2.5-2.2-5.4-2.1-8.4c-0.1-2.4,0.3-4.7,1.2-6.9c0.9-2.2,2.2-4.2,4-5.9c5.9-4.9,13.5-7.3,21.2-6.7c3.7,0,7.4,0.4,11,1.2
			c4.4,1.1,8.6,2.6,12.7,4.4c1,0.5,2.1,0.8,3.2,1c0.8-0.1,1.6-0.4,2.2-1L943.7,423.2z"/>
		<path class="st1" d="M36,14.2c0,0,45.4-17,74.7-13.8c29.3,3.2,50,4,86,25.5c36,21.5,90.4,38.8,136.3,19.2
			c45.9-19.6,112.1-43.3,158-40s70.2,14.3,111.6,32.1c41.4,17.8,94.1,17.9,114.3,11.2c20.2-6.7,101-33.8,117.9-37.5
			c18.4-3.5,37.1-5.7,55.9-6.5v307.2c-15.8,1.3-31.4,3.7-46.8,7.1c-16.2,4.4-68,19.2-89.6,28.1c-21.6,8.9-56.6,17.9-104.4,5.8
			c-47.9-12.1-100.9-45.5-159.4-41.5c-42,3.9-83.1,14.8-121.5,32.1c-67.1,29.5-107.6,10.2-107.6,10.2s-43.6-16.4-68.8-32.2
			c-25.2-15.8-77.4-18.7-111.2-10.7c-33.8,8-44.4,11.2-44.4,11.2L36,14.2z"/>
		<path class="st2" d="M593.8,53.3v259.8c-26.6-9.4-54.6-21.4-87.4-22.3c-68.8-1.8-142.5,34.8-170.9,43.7V59.2
			c45.9-15.3,95.8-38.8,155.4-35.7C532.8,25.5,593.8,53.3,593.8,53.3z"/>
		<path class="st3" d="M873.3,293.9c-41.9,3.4-84.4,20.8-131.9,37.3c-47.5,16.6-98.9,2.2-126.3-8.8V61.2
			c32.3,8.8,70.2,16.3,108.8,2.3c41.1-14.8,90.3-35.2,149.3-40.4V293.9z"/>
		<path class="st3" d="M313.6,67.1v272.2c-13.4,1.3-27,0.4-40.1-2.6c-53.3-9.5-74.2-42.9-127.5-48.8c-30.5-3.2-61.3-0.2-90.6,9V24.4
			c21.5-5.5,43.8-7.3,66-5.4c58.6,5.7,77.2,39.2,130.5,48.6C274.7,71.7,287.9,75.1,313.6,67.1z"/>
		<path class="st1" d="M242.4,253.2c0,2.8,0.7,5.1,6.1,5.5v3.7h-44.7v-3.7c5.4-0.6,6.1-2.8,6.1-5.5v-56.9h-56.6v56.9
			c0,2.8,0.7,5.1,6.1,5.5v3.7h-44.7v-3.7c5.5-0.6,6.1-2.8,6.1-5.5V110c0-2.8-0.7-5.1-6.1-5.5v-3.7h44.8v3.7
			c-5.4,0.6-6.1,2.8-6.1,5.5v48.9h56.6V110c0-2.8-0.7-5.1-6.1-5.5v-3.7h44.7v3.7c-5.1,0.6-6.1,2.8-6.1,5.5L242.4,253.2z"/>
		<path class="st1" d="M437.9,227.4c-5.7,22.4-6.9,26.5-6.9,28.3c0,1.8,0.9,3.1,3.9,3.1v3.7h-38.4v-3.7c3-0.9,4.3-2.1,5.6-7
			c2-7.1,38.7-142.3,38.7-144.1c0-1.8-2.4-2.8-4.4-3.1v-3.7h56.6v3.7c-2.4,0.3-3.9,0.9-3.9,4c0,3.1,26.7,94.4,40.2,141
			c2.2,7.4,3.5,9.2,6.1,9.2v3.7h-42.6v-3.7c3-0.3,4.1-1.8,4.1-3.7c0-1.8-6.5-23.7-7.4-27.7H437.9z M443,202.8h40.4l-20.7-73.2
			L443,202.8z"/>
		<path class="st1" d="M719.8,264.2v-3.7c2.6-0.6,3.2-1.5,3.2-2.8c0-2.8-38.9-126.9-43.6-142.8c-2-6.7-2.8-8.3-5.1-8.6v-3.7h44.5
			v3.7c-3.4,0.3-4.3,1.5-4.3,3.7s3.2,9.8,30.4,93.4c25.7-81.1,29.3-90,29.3-93.7c0-2.1-0.7-3.1-3.2-3.4v-3.7h37.3v3.7
			c-1.7,0.6-2.6,1.2-3.3,4c-2.2,9.8-43.6,142.8-43.6,147.2c0,0.4,0.1,0.8,0.2,1.1c0.2,0.4,0.4,0.7,0.7,0.9c0.3,0.3,0.6,0.5,1,0.6
			c0.4,0.1,0.8,0.2,1.2,0.1v4L719.8,264.2z"/>
	</g>
</g>
</svg>
