<svg width="434" height="201" viewBox="0 0 434 201" fill="none" xmlns="http://www.w3.org/2000/svg">
<path d="M55.9 20.6L63.7 12.6C71.7 4.60001 82.2 0.600006 92.7 0.600006C103.2 0.600006 113.7 4.60001 121.7 12.6L129.5 20.6H55.9Z" fill="#060706"/>
<path d="M5 92.5L2 81.7C-0.900004 70.8 0.899994 59.7 6.09999 50.6C11.3 41.5 20 34.4 31 31.5L41.8 28.7L5 92.4V92.5Z" fill="#060706"/>
<path d="M41.8 172.5L31 169.7C20.1 166.8 11.4 159.7 6.09999 150.6C0.899994 141.5 -0.900004 130.4 2 119.5L5 108.7L41.8 172.4V172.5Z" fill="#060706"/>
<path d="M129.5 180.6L121.7 188.6C113.7 196.6 103.2 200.6 92.7 200.6C82.2 200.6 71.7 196.6 63.7 188.6L55.9 180.6H129.5Z" fill="#060706"/>
<path d="M180.4 108.7L183.4 119.5C186.3 130.4 184.5 141.5 179.3 150.6C174.1 159.7 165.4 166.8 154.4 169.7L143.6 172.5L180.4 108.8V108.7Z" fill="#060706"/>
<path d="M143.6 28.7L154.4 31.5C165.3 34.4 174 41.5 179.3 50.6C184.5 59.7 186.3 70.8 183.4 81.7L180.4 92.5L143.6 28.8V28.7Z" fill="#060706"/>
<path d="M252.7 19.9H259.7L271.8 63.9H265.8L262.6 51.3H249.7L246.5 63.9H240.5L252.7 19.9ZM261.3 46.3L257.6 31.8C257 29.5 256.6 27.2 256.1 24.6C255.7 27.2 255.2 29.4 254.7 31.8L251 46.3H261.4H261.3Z" fill="#060706"/>
<path d="M273.7 19.9H279.1V46.1C279.8 45 280.5 44 281.2 43L288.4 33.1H295L285.6 45.4L296 63.9H289.7L282.2 49.9L279.2 53.9V64H273.8V20L273.7 19.9Z" fill="#060706"/>
<path d="M294.9 48.8C294.9 38.5 299.4 32.4 306.3 32.4C313.2 32.4 316.7 37.8 316.7 47.5V49.7H300.4C300.4 56.2 302.7 60.2 306.2 60.2C309.7 60.2 310.9 57.8 311.2 54H316.6C316.2 60.7 312.4 64.7 306.2 64.7C300 64.7 294.9 59.4 294.9 48.8ZM306.2 36.7C302.8 36.7 300.7 40.2 300.5 45.6H311.2C311.2 39.9 309.4 36.7 306.2 36.7Z" fill="#060706"/>
<path d="M320.4 33.1H325.8V36C325.8 36.9 325.8 37.7 325.8 38.6C327.1 35.1 329.3 32.4 332.8 32.4C336.3 32.4 333.8 32.4 334.2 32.6V38.4C333.9 38.4 333.3 38.2 332.6 38.2C328.5 38.2 325.9 41.1 325.9 47.1V63.9H320.5V33L320.4 33.1Z" fill="#060706"/>
<path d="M263.4 122C261.6 122.9 259.5 123.4 257.2 123.4C248.1 123.4 242.1 115.6 242.1 100.6C242.1 85.6 248.1 77.8 257.2 77.8C266.3 77.8 272.3 85.7 272.3 100.6C272.3 115.5 270.4 115.2 267 119L270.8 124.9L266.6 127.4L263.3 122H263.4ZM260.6 117.5L256.1 110.1L259.9 107.7L263.9 114C265.6 111 266.5 106.6 266.5 100.5C266.5 88.7 263 82.7 257.3 82.7C251.6 82.7 248.1 88.7 248.1 100.5C248.1 112.3 251.6 118.2 257.3 118.2C263 118.2 259.7 117.9 260.7 117.4L260.6 117.5Z" fill="#060706"/>
<path d="M276.9 78.6H289.8C296.9 78.6 301.2 83 301.2 89.9C301.2 96.8 298.3 99.1 294.5 100.6C298.3 101.5 300.5 104.4 300.5 109.8V122.6H294.8V110.2C294.8 105.2 292.9 103.5 288.8 103.5H282.6V122.7H276.9V78.7V78.6ZM295.4 90.9C295.4 86.1 293.3 83.7 289 83.7H282.6V98.5H288.9C293.1 98.5 295.4 95.9 295.4 90.9Z" fill="#060706"/>
<path d="M306.1 78.6H311.8V122.6H306.1V78.6Z" fill="#060706"/>
<path d="M318 78.6H323.7V117.6H338.6V122.6H318V78.6Z" fill="#060706"/>
<path d="M341.5 78.6H347.2V117.6H362.1V122.6H341.5V78.6Z" fill="#060706"/>
<path d="M242.1 158.5C242.1 143.9 248.1 135.8 257.5 135.8C266.9 135.8 270.3 141.3 271 151.3H265.2C264.6 144.4 261.9 140.7 257.5 140.7C253.1 140.7 248.1 146.9 248.1 158.4C248.1 169.9 251.7 176.2 257.3 176.2C262.9 176.2 264.8 172.4 265.4 165.4H271.1C270.3 175.7 265.4 181.2 257.2 181.2C249 181.2 242.1 173.3 242.1 158.4V158.5Z" fill="#060706"/>
<path d="M273.1 165.3C273.1 154.4 277.9 149.1 284.5 149.1C291.1 149.1 295.9 154.4 295.9 165.3C295.9 176.2 291.1 181.4 284.5 181.4C277.9 181.4 273.1 176.2 273.1 165.3ZM290.5 165.3C290.5 157.5 288.2 153.5 284.6 153.5C281 153.5 278.7 157.5 278.7 165.3C278.7 173.1 281 176.9 284.6 176.9C288.2 176.9 290.5 173 290.5 165.3Z" fill="#060706"/>
<path d="M299.6 149.7H305V151C305 151.8 305 152.4 305 153.3C306.4 150.7 308.9 149.1 311.8 149.1C314.7 149.1 317.3 151.1 318.2 154C319.5 151.2 322.2 149.1 325.7 149.1C329.2 149.1 333.3 152.9 333.3 159.5V180.7H327.9V160C327.9 156 326.6 153.7 323.9 153.7C321.2 153.7 319.1 156.7 319.1 160.7V180.8H313.7V160.1C313.7 156.1 312.4 153.8 309.7 153.8C307 153.8 305 156.8 305 160.8V180.9H299.6V150V149.7Z" fill="#060706"/>
<path d="M337.9 149.7H343.3V153.9C344.6 150.9 347.3 149 350.6 149C356.4 149 360.3 154.7 360.3 165.2C360.3 175.7 356 181.4 350.2 181.4C344.4 181.4 344.6 179.7 343.3 176.7V179.5V193.3H337.9V149.8V149.7ZM354.8 165.2C354.8 157.7 352.6 153.5 349.1 153.5C345.6 153.5 343.2 157.8 343.2 165.2C343.2 172.6 345.4 176.8 349 176.8C352.6 176.8 354.8 172.7 354.8 165.2Z" fill="#060706"/>
<path d="M362.5 172.4C362.5 167.2 365.9 164.1 371.2 162.8L375 161.9C377 161.5 377.8 160.3 377.8 158.1C377.8 155.9 376.4 153.3 373.7 153.3C371 153.3 368.9 155.6 368.7 159.6H363.2C363.4 153.1 367.1 149 373.8 149C380.5 149 383.4 152.9 383.4 159.8V180.5H378.1V176.6C376.9 179.3 374.3 181.3 370.9 181.3C367.5 181.3 362.7 177.7 362.7 172.3L362.5 172.4ZM377.8 169.2V164.4C377.4 165 376.5 165.5 375.2 165.9L372.6 166.7C369.8 167.5 367.9 169.3 367.9 172.4C367.9 175.5 369.6 177.1 372.1 177.1C374.6 177.1 377.8 174 377.8 169.3V169.2Z" fill="#060706"/>
<path d="M388 149.7H393.4V151C393.4 151.8 393.4 152.6 393.4 153.4C394.8 150.8 397.4 149.1 400.8 149.1C405.6 149.1 408.7 152.7 408.7 159.5V180.7H403.3V160.1C403.3 156 401.7 153.6 398.8 153.6C395.9 153.6 393.5 156.5 393.5 160.4V180.7H388.1V149.8L388 149.7Z" fill="#060706"/>
<path d="M419 180.9L410.3 149.8H416L420.5 168.7L421.8 174.4C422.2 172.4 422.6 170.4 423.1 168.7L427.6 149.8H433.1L421 193.3H415.5L419 180.9Z" fill="#060706"/>
</svg>
