<?xml version="1.0" encoding="UTF-8" standalone="no"?>
<!-- Created with Inkscape (http://www.inkscape.org/) -->

<svg
   version="1.1"
   id="svg2"
   width="272.71213"
   height="100.89439"
   viewBox="0 0 272.71212 100.89439"
   sodipodi:docname="Borr Drilling logo.svg"
   inkscape:version="1.2.2 (732a01da63, 2022-12-09)"
   xmlns:inkscape="http://www.inkscape.org/namespaces/inkscape"
   xmlns:sodipodi="http://sodipodi.sourceforge.net/DTD/sodipodi-0.dtd"
   xmlns="http://www.w3.org/2000/svg"
   xmlns:svg="http://www.w3.org/2000/svg">
  <defs
     id="defs6">
    <clipPath
       clipPathUnits="userSpaceOnUse"
       id="clipPath16">
      <path
         d="M 0,0 H 1190.551 V 841.89 H 0 Z"
         id="path14" />
    </clipPath>
    <clipPath
       clipPathUnits="userSpaceOnUse"
       id="clipPath28">
      <path
         d="M 0,841.89 V 143.194 C 20.301,112.962 47.877,87.23 81.447,68.179 v 0 c 75.697,-42.939 166.115,-42.9 241.851,0.082 v 0 l 675.499,383.638 c 75.74,42.978 120.928,119.97 120.888,205.929 v 0 c 0,72.912 -32.547,139.347 -88.645,184.062 v 0 z"
         id="path26" />
    </clipPath>
    <clipPath
       clipPathUnits="userSpaceOnUse"
       id="clipPath52">
      <path
         d="M 0,0 H 1190.551 V 841.89 H 0 Z"
         id="path50" />
    </clipPath>
    <clipPath
       clipPathUnits="userSpaceOnUse"
       id="clipPath92">
      <path
         d="M 0,0 H 1190.551 V 841.89 H 0 Z"
         id="path90" />
    </clipPath>
  </defs>
  <sodipodi:namedview
     id="namedview4"
     pagecolor="#ffffff"
     bordercolor="#000000"
     borderopacity="0.25"
     inkscape:showpageshadow="2"
     inkscape:pageopacity="0.0"
     inkscape:pagecheckerboard="0"
     inkscape:deskcolor="#d1d1d1"
     showgrid="false"
     inkscape:zoom="4.7118166"
     inkscape:cx="132.433"
     inkscape:cy="57.196623"
     inkscape:window-width="1920"
     inkscape:window-height="1001"
     inkscape:window-x="-9"
     inkscape:window-y="-9"
     inkscape:window-maximized="1"
     inkscape:current-layer="g8" />
  <g
     id="g8"
     inkscape:groupmode="layer"
     inkscape:label="Borr-Drilling-Sustainability-Report-2021"
     transform="matrix(1.3333333,0,0,-1.3333333,-1266.6893,148.8944)">
    <g
       id="g46">
      <g
         id="g48"
         clip-path="url(#clipPath52)">
        <g
           id="g54"
           transform="translate(1052.6843,103.4483)">
          <path
             d="m 0,0 h 8.135 c 0.944,0 1.895,-0.066 2.85,-0.197 0.955,-0.132 1.813,-0.394 2.573,-0.788 0.76,-0.394 1.376,-0.944 1.849,-1.651 0.472,-0.707 0.708,-1.646 0.708,-2.817 0,-1.212 -0.344,-2.217 -1.032,-3.014 -0.688,-0.798 -1.597,-1.368 -2.727,-1.712 v -0.06 c 0.719,-0.101 1.371,-0.298 1.957,-0.591 0.585,-0.293 1.088,-0.667 1.509,-1.121 0.421,-0.454 0.745,-0.984 0.971,-1.59 0.226,-0.606 0.339,-1.253 0.339,-1.939 0,-1.131 -0.246,-2.075 -0.739,-2.833 -0.493,-0.757 -1.13,-1.368 -1.911,-1.832 -0.781,-0.465 -1.659,-0.798 -2.634,-1 -0.976,-0.202 -1.947,-0.303 -2.912,-0.303 H 0 Z m 4.807,-8.573 h 3.482 c 0.369,0 0.734,0.04 1.094,0.121 0.359,0.081 0.682,0.212 0.97,0.394 0.288,0.182 0.519,0.424 0.694,0.727 0.174,0.303 0.261,0.666 0.261,1.091 0,0.443 -0.097,0.812 -0.292,1.105 -0.196,0.293 -0.447,0.52 -0.755,0.682 -0.308,0.161 -0.658,0.277 -1.048,0.348 -0.391,0.071 -0.77,0.106 -1.14,0.106 H 4.807 Z m 0,-8.876 h 4.314 c 0.369,0 0.744,0.04 1.124,0.121 0.38,0.08 0.724,0.222 1.033,0.424 0.308,0.202 0.559,0.465 0.755,0.788 0.194,0.323 0.292,0.717 0.292,1.181 0,0.505 -0.128,0.914 -0.385,1.227 -0.257,0.313 -0.58,0.55 -0.971,0.712 -0.39,0.162 -0.811,0.273 -1.263,0.333 -0.452,0.061 -0.873,0.091 -1.263,0.091 H 4.807 Z"
             style="fill:#0070ce;fill-opacity:1;fill-rule:nonzero;stroke:none"
             id="path56" />
        </g>
        <g
           id="g58"
           transform="translate(1071.6652,89.3616)">
          <path
             d="m 0,0 c 0,1.171 0.216,2.231 0.647,3.181 0.431,0.949 1.022,1.762 1.772,2.439 0.749,0.676 1.633,1.196 2.65,1.56 1.016,0.363 2.1,0.545 3.251,0.545 1.15,0 2.234,-0.182 3.25,-0.545 1.017,-0.364 1.9,-0.884 2.65,-1.56 0.75,-0.677 1.341,-1.49 1.772,-2.439 0.432,-0.95 0.647,-2.01 0.647,-3.181 0,-1.171 -0.215,-2.232 -0.647,-3.181 C 15.561,-4.13 14.97,-4.943 14.22,-5.619 13.47,-6.296 12.587,-6.816 11.57,-7.18 10.554,-7.543 9.47,-7.725 8.32,-7.725 7.169,-7.725 6.085,-7.543 5.069,-7.18 4.052,-6.816 3.168,-6.296 2.419,-5.619 1.669,-4.943 1.078,-4.13 0.647,-3.181 0.216,-2.232 0,-1.171 0,0 m 4.622,0 c 0,-1.111 0.323,-2.01 0.97,-2.696 0.648,-0.687 1.557,-1.03 2.728,-1.03 1.17,0 2.079,0.343 2.727,1.03 0.647,0.686 0.97,1.585 0.97,2.696 0,1.111 -0.323,2.009 -0.97,2.696 C 10.399,3.383 9.49,3.726 8.32,3.726 7.149,3.726 6.24,3.383 5.592,2.696 4.945,2.009 4.622,1.111 4.622,0"
             style="fill:#0070ce;fill-opacity:1;fill-rule:nonzero;stroke:none"
             id="path60" />
        </g>
        <g
           id="g62"
           transform="translate(1091.1692,96.7231)">
          <path
             d="m 0,0 h 4.622 v -2.363 h 0.062 c 0.493,0.909 1.078,1.59 1.756,2.045 0.678,0.455 1.53,0.682 2.557,0.682 0.267,0 0.534,-0.011 0.801,-0.031 0.267,-0.02 0.514,-0.06 0.74,-0.121 v -4.15 c -0.329,0.101 -0.652,0.176 -0.971,0.227 -0.318,0.05 -0.652,0.076 -1.001,0.076 -0.884,0 -1.582,-0.121 -2.096,-0.364 C 5.957,-4.241 5.562,-4.58 5.284,-5.014 5.007,-5.448 4.827,-5.968 4.745,-6.574 4.663,-7.18 4.622,-7.846 4.622,-8.573 v -6.15 H 0 Z"
             style="fill:#0070ce;fill-opacity:1;fill-rule:nonzero;stroke:none"
             id="path64" />
        </g>
        <g
           id="g66"
           transform="translate(1103.8643,96.7231)">
          <path
             d="m 0,0 h 4.622 v -2.363 h 0.062 c 0.493,0.909 1.078,1.59 1.756,2.045 0.678,0.455 1.53,0.682 2.557,0.682 0.267,0 0.534,-0.011 0.801,-0.031 0.267,-0.02 0.514,-0.06 0.74,-0.121 v -4.15 c -0.329,0.101 -0.652,0.176 -0.971,0.227 -0.318,0.05 -0.652,0.076 -1.001,0.076 -0.884,0 -1.582,-0.121 -2.096,-0.364 C 5.957,-4.241 5.562,-4.58 5.284,-5.014 5.007,-5.448 4.827,-5.968 4.745,-6.574 4.663,-7.18 4.622,-7.846 4.622,-8.573 v -6.15 H 0 Z"
             style="fill:#0070ce;fill-opacity:1;fill-rule:nonzero;stroke:none"
             id="path68" />
        </g>
        <g
           id="g70"
           transform="translate(1052.6843,65.6646)">
          <path
             d="m 0,0 h 7.21 c 1.746,0 3.405,-0.192 4.977,-0.575 1.571,-0.384 2.942,-1.005 4.113,-1.863 1.171,-0.859 2.101,-1.975 2.789,-3.348 0.688,-1.374 1.032,-3.04 1.032,-4.998 0,-1.738 -0.334,-3.268 -1.001,-4.59 -0.668,-1.323 -1.567,-2.434 -2.697,-3.332 -1.13,-0.899 -2.434,-1.58 -3.913,-2.045 -1.479,-0.465 -3.03,-0.697 -4.653,-0.697 H 0 Z m 4.807,-17.086 h 2.496 c 1.109,0 2.141,0.111 3.097,0.334 0.955,0.222 1.781,0.591 2.48,1.106 0.698,0.515 1.248,1.191 1.649,2.029 0.4,0.838 0.6,1.863 0.6,3.075 0,1.05 -0.2,1.964 -0.6,2.742 -0.401,0.777 -0.94,1.418 -1.618,1.923 -0.678,0.505 -1.475,0.883 -2.388,1.136 -0.914,0.253 -1.875,0.379 -2.881,0.379 H 4.807 Z"
             style="fill:#0070ce;fill-opacity:1;fill-rule:nonzero;stroke:none"
             id="path72" />
        </g>
        <g
           id="g74"
           transform="translate(1075.6396,58.9395)">
          <path
             d="m 0,0 h 4.622 v -2.363 h 0.062 c 0.493,0.909 1.078,1.591 1.756,2.045 0.678,0.454 1.53,0.682 2.557,0.682 0.267,0 0.534,-0.01 0.801,-0.031 0.267,-0.02 0.514,-0.06 0.74,-0.121 v -4.15 c -0.329,0.101 -0.652,0.177 -0.971,0.227 -0.318,0.05 -0.652,0.076 -1.001,0.076 -0.884,0 -1.582,-0.121 -2.096,-0.364 C 5.957,-4.241 5.562,-4.579 5.284,-5.014 5.007,-5.448 4.827,-5.968 4.745,-6.574 4.663,-7.179 4.622,-7.846 4.622,-8.573 v -6.15 H 0 Z"
             style="fill:#0070ce;fill-opacity:1;fill-rule:nonzero;stroke:none"
             id="path76" />
        </g>
        <g
           id="g78"
           transform="translate(1088.0265,63.5748)">
          <path
             d="M 0,0 C 0,0.727 0.262,1.348 0.786,1.863 1.309,2.378 1.942,2.636 2.681,2.636 3.42,2.636 4.052,2.378 4.576,1.863 5.1,1.348 5.362,0.727 5.362,0 5.362,-0.727 5.1,-1.348 4.576,-1.863 4.052,-2.378 3.42,-2.636 2.681,-2.636 1.942,-2.636 1.309,-2.378 0.786,-1.863 0.262,-1.348 0,-0.727 0,0 M 0.37,-4.635 H 4.992 V -19.358 H 0.37 Z"
             style="fill:#0070ce;fill-opacity:1;fill-rule:nonzero;stroke:none"
             id="path80" />
        </g>
      </g>
    </g>
    <path
       d="m 1096.561,67.119 h 4.622 V 44.217 h -4.622 z"
       style="fill:#0070ce;fill-opacity:1;fill-rule:nonzero;stroke:none"
       id="path82" />
    <path
       d="m 1104.727,67.119 h 4.622 V 44.217 h -4.622 z"
       style="fill:#0070ce;fill-opacity:1;fill-rule:nonzero;stroke:none"
       id="path84" />
    <g
       id="g86">
      <g
         id="g88"
         clip-path="url(#clipPath92)">
        <g
           id="g94"
           transform="translate(1112.5226,63.5748)">
          <path
             d="M 0,0 C 0,0.727 0.262,1.348 0.786,1.863 1.309,2.378 1.941,2.636 2.681,2.636 3.42,2.636 4.052,2.378 4.576,1.863 5.099,1.348 5.362,0.727 5.362,0 5.362,-0.727 5.099,-1.348 4.576,-1.863 4.052,-2.378 3.42,-2.636 2.681,-2.636 c -0.74,0 -1.372,0.258 -1.895,0.773 C 0.262,-1.348 0,-0.727 0,0 M 0.37,-4.635 H 4.992 V -19.358 H 0.37 Z"
             style="fill:#0070ce;fill-opacity:1;fill-rule:nonzero;stroke:none"
             id="path96" />
        </g>
        <g
           id="g98"
           transform="translate(1120.996,58.9395)">
          <path
             d="m 0,0 h 4.437 v -1.999 h 0.062 c 0.143,0.283 0.349,0.565 0.616,0.848 0.267,0.283 0.585,0.535 0.955,0.757 0.37,0.222 0.791,0.404 1.263,0.545 0.473,0.142 0.986,0.213 1.541,0.213 1.171,0 2.116,-0.177 2.835,-0.53 0.718,-0.354 1.279,-0.844 1.679,-1.47 0.401,-0.626 0.673,-1.363 0.817,-2.211 0.143,-0.848 0.216,-1.768 0.216,-2.757 v -8.119 H 9.798 v 7.211 c 0,0.423 -0.015,0.863 -0.046,1.317 -0.031,0.455 -0.123,0.874 -0.277,1.257 -0.154,0.384 -0.391,0.697 -0.709,0.939 -0.318,0.243 -0.775,0.364 -1.371,0.364 -0.596,0 -1.079,-0.106 -1.448,-0.318 C 5.577,-4.165 5.294,-4.448 5.1,-4.801 4.904,-5.155 4.776,-5.554 4.714,-5.998 4.653,-6.443 4.622,-6.907 4.622,-7.391 v -7.332 H 0 Z"
             style="fill:#0070ce;fill-opacity:1;fill-rule:nonzero;stroke:none"
             id="path100" />
        </g>
        <g
           id="g102"
           transform="translate(1154.5511,45.4592)">
          <path
             d="m 0,0 c 0,-2.787 -0.714,-4.903 -2.142,-6.347 -1.428,-1.443 -3.6,-2.166 -6.516,-2.166 -1.336,0 -2.65,0.147 -3.945,0.44 -1.294,0.293 -2.485,0.863 -3.574,1.711 l 2.558,3.757 c 0.718,-0.586 1.473,-1.051 2.264,-1.394 0.791,-0.343 1.659,-0.515 2.604,-0.515 1.418,0 2.46,0.339 3.128,1.015 0.667,0.677 1.001,1.54 1.001,2.59 v 1.424 h -0.062 c -0.534,-0.707 -1.196,-1.207 -1.987,-1.5 -0.791,-0.292 -1.536,-0.439 -2.234,-0.439 -1.109,0 -2.116,0.187 -3.02,0.56 -0.904,0.374 -1.679,0.899 -2.326,1.575 -0.647,0.677 -1.145,1.48 -1.494,2.409 -0.35,0.929 -0.524,1.949 -0.524,3.06 0,0.969 0.159,1.918 0.477,2.847 0.318,0.929 0.77,1.747 1.356,2.454 0.585,0.707 1.299,1.277 2.142,1.712 0.842,0.433 1.797,0.651 2.865,0.651 0.657,0 1.258,-0.071 1.803,-0.212 0.544,-0.142 1.032,-0.324 1.463,-0.546 0.432,-0.222 0.802,-0.469 1.11,-0.742 0.308,-0.273 0.554,-0.54 0.739,-0.802 h 0.062 V 13.48 H 0 Z m -11.647,6.21 c 0,-0.485 0.092,-0.944 0.277,-1.379 0.185,-0.434 0.447,-0.818 0.786,-1.151 0.339,-0.333 0.729,-0.601 1.171,-0.802 0.441,-0.203 0.929,-0.303 1.463,-0.303 0.514,0 0.996,0.1 1.448,0.303 0.452,0.201 0.848,0.469 1.187,0.802 0.339,0.333 0.601,0.717 0.785,1.151 0.185,0.435 0.278,0.894 0.278,1.379 0,0.485 -0.093,0.944 -0.278,1.378 C -4.714,8.022 -4.976,8.406 -5.315,8.739 -5.654,9.073 -6.05,9.34 -6.502,9.542 -6.954,9.744 -7.436,9.845 -7.95,9.845 -8.484,9.845 -8.972,9.744 -9.413,9.542 -9.855,9.34 -10.245,9.073 -10.584,8.739 -10.923,8.406 -11.185,8.022 -11.37,7.588 -11.555,7.154 -11.647,6.695 -11.647,6.21"
             style="fill:#0070ce;fill-opacity:1;fill-rule:nonzero;stroke:none"
             id="path104" />
        </g>
        <g
           id="g106"
           transform="translate(1014.2693,73.8408)">
          <path
             d="M 0,0 C 0,0.712 -0.375,1.349 -1.002,1.705 L -6.596,4.879 C -6.918,5.061 -7.272,5.15 -7.625,5.145 -7.96,5.141 -8.293,5.052 -8.599,4.878 -9.226,4.522 -9.6,3.885 -9.599,3.173 l 10e-4,-6.35 c 0,-0.712 0.374,-1.349 1.002,-1.705 0.626,-0.356 1.375,-0.355 2.002,0 l 5.593,3.177 C -0.374,-1.349 0,-0.712 0,0"
             style="fill:#0070ce;fill-opacity:1;fill-rule:nonzero;stroke:none"
             id="path108" />
        </g>
        <g
           id="g110"
           transform="translate(1027.6659,67.3771)">
          <path
             d="M 0,0 -5.595,3.174 C -5.916,3.357 -6.27,3.445 -6.623,3.44 -6.958,3.436 -7.292,3.347 -7.597,3.173 -8.224,2.818 -8.598,2.18 -8.598,1.468 l 0.002,-6.35 c 0,-0.712 0.374,-1.349 1.001,-1.705 0.627,-0.356 1.376,-0.355 2.003,10e-4 l 5.593,3.176 c 0.626,0.356 1.001,0.993 1.001,1.705 C 1.001,-0.993 0.627,-0.356 0,0"
             style="fill:#0070ce;fill-opacity:1;fill-rule:nonzero;stroke:none"
             id="path112" />
        </g>
        <g
           id="g114"
           transform="translate(962.4786,93.4643)">
          <path
             d="M 0,0 C 0.627,-0.356 1.375,-0.356 2.003,0.001 L 7.596,3.177 C 8.223,3.533 8.597,4.17 8.597,4.882 8.596,5.594 8.222,6.231 7.595,6.587 L 2,9.761 C 1.678,9.944 1.325,10.032 0.972,10.027 0.637,10.023 0.303,9.934 -0.002,9.76 -0.629,9.405 -1.003,8.767 -1.003,8.055 l 10e-4,-6.35 C -1.002,0.993 -0.627,0.356 0,0"
             style="fill:#0070ce;fill-opacity:1;fill-rule:nonzero;stroke:none"
             id="path116" />
        </g>
        <g
           id="g118"
           transform="translate(984.4717,91.8827)">
          <path
             d="M 0,0 -5.595,3.174 C -5.916,3.357 -6.27,3.445 -6.623,3.44 -6.958,3.436 -7.292,3.347 -7.597,3.173 -8.224,2.818 -8.598,2.18 -8.598,1.468 l 0.001,-6.35 c 10e-4,-0.712 0.375,-1.349 1.002,-1.705 0.627,-0.356 1.376,-0.356 2.003,10e-4 l 5.593,3.176 c 0.627,0.356 1.001,0.993 1.001,1.705 C 1.002,-0.993 0.627,-0.356 0,0"
             style="fill:#0070ce;fill-opacity:1;fill-rule:nonzero;stroke:none"
             id="path120" />
        </g>
        <g
           id="g122"
           transform="translate(1001.8085,62.3754)">
          <path
             d="m 0,0 c -0.627,0.356 -1.375,0.356 -2.003,0 l -5.593,-3.177 c -0.627,-0.356 -1.001,-0.994 -1,-1.705 0,-0.712 0.374,-1.349 1.001,-1.705 L -2,-9.761 c 0.627,-0.356 1.375,-0.356 2.002,10e-4 0.627,0.355 1.001,0.993 1.001,1.705 l -10e-4,6.35 C 1.001,-0.993 0.627,-0.356 0,0"
             style="fill:#0070ce;fill-opacity:1;fill-rule:nonzero;stroke:none"
             id="path124" />
        </g>
        <g
           id="g126"
           transform="translate(1016.2064,54.2069)">
          <path
             d="M 0,0 C -0.322,0.182 -0.676,0.271 -1.028,0.266 -1.363,0.262 -1.697,0.173 -2.003,0 l -5.593,-3.177 c -0.627,-0.356 -1.001,-0.994 -1,-1.705 0,-0.712 0.374,-1.349 1.001,-1.705 L -2,-9.761 c 0.627,-0.356 1.375,-0.356 2.002,10e-4 0.627,0.355 1.001,0.993 1.001,1.705 l -10e-4,6.35 C 1.002,-0.993 0.627,-0.356 0,0"
             style="fill:#0070ce;fill-opacity:1;fill-rule:nonzero;stroke:none"
             id="path128" />
        </g>
        <g
           id="g130"
           transform="translate(951.019,80.2942)">
          <path
             d="m 0,0 5.595,-3.174 c 0.627,-0.356 1.376,-0.356 2.002,0 0.627,0.356 1.002,0.994 1.001,1.705 L 8.597,4.882 C 8.597,5.594 8.222,6.231 7.595,6.587 7.274,6.769 6.919,6.858 6.567,6.853 6.232,6.849 5.898,6.759 5.592,6.586 L -0.001,3.41 C -0.628,3.054 -1.002,2.416 -1.002,1.705 -1.001,0.993 -0.627,0.356 0,0"
             style="fill:#0070ce;fill-opacity:1;fill-rule:nonzero;stroke:none"
             id="path132" />
        </g>
        <g
           id="g134"
           transform="translate(964.4156,73.8303)">
          <path
             d="m 0,0 c 0,-0.712 0.375,-1.349 1.002,-1.705 l 5.594,-3.174 c 0.628,-0.355 1.376,-0.355 2.003,10e-4 0.627,0.356 1.001,0.993 1,1.705 L 9.598,3.177 C 9.598,3.889 9.224,4.526 8.597,4.882 8.275,5.065 7.921,5.154 7.568,5.149 7.233,5.144 6.899,5.055 6.594,4.882 L 1.001,1.705 C 0.374,1.349 0,0.712 0,0"
             style="fill:#0070ce;fill-opacity:1;fill-rule:nonzero;stroke:none"
             id="path136" />
        </g>
        <g
           id="g138"
           transform="translate(994.2026,104.8176)">
          <path
             d="M 0,0 5.595,-3.174 C 6.222,-3.53 6.97,-3.53 7.597,-3.173 8.224,-2.818 8.599,-2.18 8.598,-1.468 L 8.597,4.882 C 8.597,5.594 8.222,6.231 7.595,6.587 7.274,6.769 6.92,6.858 6.567,6.853 6.232,6.849 5.898,6.76 5.592,6.586 L -0.001,3.41 C -0.628,3.054 -1.002,2.416 -1.002,1.705 -1.001,0.993 -0.627,0.356 0,0"
             style="fill:#0070ce;fill-opacity:1;fill-rule:nonzero;stroke:none"
             id="path140" />
        </g>
        <g
           id="g142"
           transform="translate(1008.6008,96.6491)">
          <path
             d="m 0,0 5.595,-3.174 c 0.627,-0.356 1.375,-0.355 2.002,10e-4 0.627,0.355 1.002,0.993 1.001,1.705 L 8.597,4.882 C 8.596,5.594 8.222,6.231 7.595,6.587 7.274,6.769 6.92,6.858 6.567,6.853 6.232,6.849 5.898,6.76 5.592,6.586 L -0.001,3.41 C -0.628,3.054 -1.002,2.416 -1.002,1.705 -1.001,0.993 -0.627,0.356 0,0"
             style="fill:#0070ce;fill-opacity:1;fill-rule:nonzero;stroke:none"
             id="path144" />
        </g>
        <g
           id="g146"
           transform="translate(1020.0674,77.1333)">
          <path
             d="m 0,0 c 0.627,-0.356 1.375,-0.356 2.003,0.001 l 5.593,3.176 c 0.627,0.356 1.001,0.994 1.001,1.705 0,0.712 -0.375,1.349 -1.002,1.705 L 2,9.761 C 1.678,9.944 1.325,10.032 0.972,10.027 0.637,10.023 0.303,9.934 -0.002,9.76 -0.629,9.405 -1.003,8.767 -1.003,8.055 l 10e-4,-6.35 C -1.002,0.993 -0.627,0.356 0,0"
             style="fill:#0070ce;fill-opacity:1;fill-rule:nonzero;stroke:none"
             id="path148" />
        </g>
        <g
           id="g150"
           transform="translate(984.4681,108.2257)">
          <path
             d="M 0,0 -5.595,3.174 C -5.916,3.357 -6.27,3.445 -6.623,3.44 -6.958,3.436 -7.292,3.347 -7.597,3.173 -8.224,2.818 -8.598,2.18 -8.598,1.468 l 0.002,-6.35 c 0,-0.712 0.374,-1.349 1.001,-1.705 0.627,-0.356 1.375,-0.356 2.003,10e-4 l 5.593,3.176 c 0.627,0.356 1.001,0.993 1.001,1.705 C 1.002,-0.993 0.627,-0.356 0,0"
             style="fill:#0070ce;fill-opacity:1;fill-rule:nonzero;stroke:none"
             id="path152" />
        </g>
        <g
           id="g154"
           transform="translate(984.4788,59.1966)">
          <path
             d="M 0,0 -5.595,3.174 C -5.916,3.357 -6.27,3.445 -6.623,3.44 -6.958,3.436 -7.292,3.347 -7.597,3.174 -8.224,2.817 -8.598,2.18 -8.598,1.468 l 0.001,-6.35 c 0,-0.712 0.375,-1.349 1.002,-1.705 0.627,-0.356 1.375,-0.355 2.003,10e-4 l 5.593,3.176 c 0.626,0.356 1.001,0.993 1.001,1.705 C 1.001,-0.993 0.627,-0.356 0,0"
             style="fill:#0070ce;fill-opacity:1;fill-rule:nonzero;stroke:none"
             id="path156" />
        </g>
        <g
           id="g158"
           transform="translate(994.2062,88.4746)">
          <path
             d="m 0,0 5.595,-3.174 c 0.627,-0.356 1.376,-0.356 2.002,10e-4 0.627,0.355 1.001,0.993 1.001,1.705 L 8.596,4.882 C 8.596,5.594 8.222,6.231 7.595,6.587 6.969,6.943 6.22,6.943 5.592,6.586 L -0.001,3.41 C -0.628,3.054 -1.002,2.416 -1.002,1.705 -1.001,0.993 -0.627,0.356 0,0"
             style="fill:#0070ce;fill-opacity:1;fill-rule:nonzero;stroke:none"
             id="path160" />
        </g>
        <g
           id="g162"
           transform="translate(984.4824,42.8535)">
          <path
             d="M 0,0 -5.595,3.174 C -5.916,3.357 -6.27,3.445 -6.623,3.44 -6.958,3.436 -7.292,3.347 -7.597,3.174 -8.224,2.818 -8.598,2.18 -8.598,1.468 l 0.001,-6.35 c 0,-0.712 0.375,-1.349 1.002,-1.705 0.626,-0.356 1.375,-0.355 2.003,10e-4 l 5.593,3.176 c 0.626,0.356 1.001,0.993 1.001,1.705 C 1.001,-0.993 0.627,-0.356 0,0"
             style="fill:#0070ce;fill-opacity:1;fill-rule:nonzero;stroke:none"
             id="path164" />
        </g>
        <g
           id="g166"
           transform="translate(970.0843,51.022)">
          <path
             d="M 0,0 -5.595,3.174 C -5.917,3.357 -6.27,3.445 -6.623,3.44 -6.958,3.436 -7.292,3.347 -7.597,3.173 -8.224,2.818 -8.598,2.18 -8.598,1.468 l 0.001,-6.35 c 0,-0.712 0.375,-1.349 1.002,-1.705 0.627,-0.356 1.375,-0.355 2.003,10e-4 l 5.593,3.176 c 0.626,0.356 1.001,0.993 1.001,1.705 C 1.001,-0.993 0.627,-0.356 0,0"
             style="fill:#0070ce;fill-opacity:1;fill-rule:nonzero;stroke:none"
             id="path168" />
        </g>
        <g
           id="g170"
           transform="translate(958.6178,70.5378)">
          <path
             d="m 0,0 c -0.627,0.356 -1.375,0.356 -2.003,0 l -5.593,-3.176 c -0.627,-0.357 -1.001,-0.994 -1.001,-1.706 10e-4,-0.712 0.375,-1.349 1.002,-1.705 L -2,-9.761 c 0.627,-0.355 1.375,-0.355 2.002,10e-4 0.627,0.356 1.001,0.993 1.001,1.705 l -10e-4,6.35 C 1.001,-0.993 0.627,-0.356 0,0"
             style="fill:#0070ce;fill-opacity:1;fill-rule:nonzero;stroke:none"
             id="path172" />
        </g>
        <g
           id="g174"
           transform="translate(1001.8119,46.0323)">
          <path
             d="M 0,0 C -0.322,0.182 -0.676,0.271 -1.028,0.266 -1.363,0.262 -1.697,0.173 -2.003,0 l -5.593,-3.177 c -0.627,-0.356 -1.001,-0.993 -1.001,-1.705 10e-4,-0.712 0.375,-1.349 1.002,-1.705 L -2,-9.761 c 0.627,-0.356 1.375,-0.356 2.002,10e-4 0.627,0.355 1.001,0.993 1.001,1.705 l -10e-4,6.35 C 1.002,-0.993 0.627,-0.356 0,0"
             style="fill:#0070ce;fill-opacity:1;fill-rule:nonzero;stroke:none"
             id="path176" />
        </g>
      </g>
    </g>
  </g>
</svg>
