<svg width="254" height="80" viewBox="0 0 254 80" fill="none" xmlns="http://www.w3.org/2000/svg">
<g clip-path="url(#clip0_609:1649)">
<path d="M20.7273 79.3109L6.8832 8.09888C7.72456 7.53097 8.34629 6.68938 8.64417 5.71518C8.94204 4.74099 8.89796 3.69341 8.51931 2.74802C8.14066 1.80263 7.45045 1.01691 6.56439 0.522547C5.67832 0.0281878 4.65025 -0.144762 3.65249 0.0326933C2.65474 0.210148 1.74794 0.727219 1.08411 1.49724C0.420277 2.26725 0.0397503 3.24341 0.00631382 4.26209C-0.0271226 5.28077 0.288563 6.28005 0.900457 7.09244C1.51235 7.90483 2.38326 8.48094 3.36721 8.72421L17.2196 80.0004L20.7273 79.3109Z" fill="white"/>
<path d="M82.7028 32.9894C80.1943 25.6091 79.1175 17.813 79.5307 10.0244C77.1262 8.80504 74.6467 7.74123 72.1075 6.83945C65.5797 4.63597 58.5095 4.67402 52.0055 6.94763C52.0055 6.94763 36.716 11.3464 26.4493 7.05582C16.1826 2.76526 7.59766 11.7696 7.59766 11.7696L7.66147 12.1084C21.8365 17.7127 17.2462 61.064 17.2462 61.064C19.7349 59.73 22.3385 58.6254 25.0252 57.7638C30.0232 55.9496 35.7575 58.0943 35.7575 58.0943C46.8196 62.5441 58.6144 58.0943 58.6144 58.0943L62.5464 56.9411C69.6741 54.9617 85.0771 59.4936 85.0771 59.4936C85.3229 58.0087 85.4317 56.7176 85.4317 56.7176C85.858 48.71 84.9354 40.6875 82.7028 32.9894Z" fill="#C1D6E4"/>
<path d="M21.835 34.5254C21.835 34.5254 21.9981 29.8294 28.7949 25.4592C33.737 22.4995 38.5217 19.2816 43.1295 15.8188C43.1295 15.8188 45.6728 13.5921 48.2114 11.2857C52.1947 14.5978 56.442 17.5748 60.9103 20.1867C60.9103 20.1867 65.5798 23.0708 69.6737 25.0455C69.6737 25.0455 75.4908 27.6039 77.7847 29.9923C77.7847 29.9923 72.4664 36.3383 69.0214 39.553C69.0214 39.553 64.2691 43.2598 59.355 47.4636C59.355 47.4636 57.6319 49.1125 56.4004 50.5106C55.1689 51.9087 53.3678 54.2198 51.7262 56.0352C45.7425 53.1729 40.3291 49.2349 35.7524 44.4154C32.6831 41.2301 29.1499 38.533 25.2741 36.4168L21.835 34.5254Z" fill="white"/>
<path d="M51.8851 56.7663L51.488 56.5904C45.4355 53.6833 39.9563 49.6978 35.3156 44.8267C32.2845 41.696 28.8024 39.0417 24.9863 36.953L21.2197 34.8773L21.2315 34.504C21.2398 34.2995 21.4868 29.4383 28.4692 24.948C33.3907 21.9997 38.1565 18.7957 42.7471 15.3492C42.7471 15.3492 45.2786 13.132 47.8101 10.8316L48.2013 10.4749L48.6031 10.8173C52.5591 14.1023 56.7745 17.0576 61.2075 19.654C61.2725 19.6933 65.9171 22.556 69.9354 24.4939C70.1576 24.5913 75.8683 27.12 78.219 29.5655L78.5972 29.959L78.2426 30.3786C78.1894 30.4417 72.8569 36.7901 69.4284 39.9917C69.341 40.0642 64.5899 43.7746 59.7432 47.9213C59.7432 47.9213 58.0472 49.5476 56.8536 50.9077C56.3406 51.4914 55.7285 52.2333 55.0702 53.031C54.1637 54.1295 53.1355 55.3742 52.1735 56.4382L51.8851 56.7663ZM22.4855 34.1937L25.5583 35.889C29.4972 38.0302 33.0848 40.7689 36.1949 44.0088C40.6238 48.6523 45.8324 52.4732 51.5813 55.2957C52.4394 54.3292 53.3411 53.2366 54.146 52.2606C54.8137 51.4522 55.4342 50.7008 55.9542 50.1088C57.1845 48.7071 58.8686 47.0927 58.9407 47.0237C63.8336 42.8378 68.6047 39.1107 68.6531 39.0739C71.4765 36.4335 75.7005 31.5152 76.9591 30.0386C74.6364 28.26 72.1091 26.7691 69.432 25.5983C65.3392 23.6248 60.6426 20.73 60.5953 20.7002C56.2549 18.1601 52.1205 15.2793 48.2308 12.0846C45.8199 14.2638 43.5247 16.2741 43.5247 16.2741C38.8938 19.7643 34.0808 23.003 29.1062 25.9763C23.7666 29.4121 22.6959 33.0583 22.4855 34.1937Z" fill="#10558C"/>
<path d="M60.5176 33.3092C60.5446 33.2991 60.5728 33.2927 60.6015 33.2901L61.0164 33.2355V31.8802H50.1552C49.6364 31.8802 49.6364 31.7363 49.6364 31.6198V31.1383H48.2264V37.7448H49.6352V37.2692C49.6352 37.1016 49.6352 36.928 50.1505 36.928H55.0256V38.8789C54.3678 39.356 53.6459 39.7366 52.8817 40.0095C51.4236 40.5176 49.8887 40.7666 48.3458 40.7454C46.1763 40.8302 44.0471 40.139 42.3361 38.7945C41.4862 38.0787 40.8143 37.173 40.3741 36.1496C39.934 35.1262 39.7377 34.0134 39.801 32.9002C39.7415 31.8153 39.9463 30.7322 40.3978 29.7451C40.8493 28.758 41.5338 27.8968 42.3916 27.2365C44.2534 25.9003 46.5081 25.2336 48.7925 25.3439C50.5584 25.3259 52.308 25.6841 53.9265 26.3948C55.73 27.1973 55.8174 27.7025 55.8257 27.7418L55.7252 28.5585L56.8078 29.3027L60.3593 23.1956L59.4386 22.7736L58.9729 22.6547L58.7555 23.0328C58.7092 23.0548 58.6603 23.0712 58.6101 23.0815C58.3176 22.9901 58.0321 22.8777 57.7556 22.7451C56.5182 22.1946 55.8198 21.8915 55.6177 21.813C54.5896 21.4775 53.5431 21.202 52.4834 20.9879C51.2434 20.7508 49.9839 20.6314 48.7216 20.6313C45.283 20.538 41.907 21.5678 39.099 23.5665C37.6005 24.6288 36.3882 26.0494 35.5714 27.7004C34.7546 29.3513 34.3589 31.1807 34.4201 33.0238C34.3282 34.8289 34.6643 36.63 35.4005 38.2787C36.1368 39.9274 37.2522 41.3763 38.6547 42.5061C41.464 44.5633 44.8836 45.6018 48.3552 45.4521C50.9296 45.4179 53.4799 44.9477 55.899 44.0611C57.5802 43.4607 59.2023 42.7045 60.7445 41.8023L60.9809 41.6632V40.5385L60.6015 40.4589C60.4904 40.4351 60.4018 40.4161 60.4018 40.1438V33.856C60.4065 33.4221 60.5141 33.3163 60.5176 33.3092Z" fill="#10558C"/>
<path d="M129.759 45.1346L129.785 44.709C129.785 44.3183 129.116 43.8392 127.776 43.2717C126.354 42.6624 124.824 42.3455 123.278 42.3396C121.296 42.2375 119.336 42.7889 117.694 43.9101C116.934 44.5668 116.325 45.3817 115.909 46.2986C115.493 47.2154 115.281 48.2122 115.286 49.22C115.291 50.2277 115.514 51.2223 115.939 52.1349C116.364 53.0475 116.981 53.8562 117.747 54.5051C119.479 55.6472 121.527 56.2067 123.595 56.1029C125.266 56.1124 126.913 55.7004 128.385 54.9046C129.743 54.177 130.423 53.476 130.423 52.8015L130.317 52.326L130.582 52.1132L133.307 56.1065L133.096 56.185L132.778 56.1065C131.648 57.0224 130.38 57.7501 129.021 58.2619C127.188 58.965 125.239 59.3084 123.278 59.2736C120.395 59.3883 117.553 58.5567 115.18 56.9042C114.052 56.0081 113.139 54.869 112.507 53.5707C111.874 52.2724 111.539 50.848 111.527 49.4024C111.514 47.9567 111.824 46.5266 112.433 45.2173C113.043 43.908 113.936 42.7528 115.048 41.8368C117.466 40.004 120.437 39.0641 123.463 39.1749C124.993 39.1741 126.517 39.3894 127.988 39.8145L131.799 41.2518C131.92 41.2567 132.039 41.2298 132.146 41.1737C132.253 41.1175 132.343 41.0342 132.408 40.9321L132.778 41.0652L130.158 45.351L129.759 45.1346Z" fill="white"/>
<path d="M145.485 50.4619L142.953 44.8255L140.448 50.4642L145.485 50.4619ZM134.457 57.06V56.7461C134.535 56.7498 134.612 56.7374 134.685 56.7098C134.758 56.6822 134.824 56.64 134.88 56.5856C135.04 56.3864 135.165 56.1613 135.25 55.9199L141.041 42.7165L141.186 42.323C141.222 42.241 141.244 42.154 141.253 42.065C141.253 41.8475 141.112 41.7214 140.83 41.6846V41.3589H145.439V41.6787C145.139 41.6787 144.988 41.7884 144.988 42.008C144.988 42.027 145.05 42.2101 145.174 42.5572L151.32 55.9199C151.421 56.1675 151.554 56.4005 151.716 56.613C151.843 56.714 152.005 56.7617 152.167 56.7461V57.0647H147.932V56.7461C148.197 56.7461 148.328 56.6748 148.328 56.5321C148.278 56.2722 148.189 56.0213 148.065 55.7879C147.605 54.8289 147.156 53.8703 146.715 52.9121H139.465C139.27 53.3377 138.846 54.2428 138.194 55.6274C138.054 55.8757 137.956 56.1457 137.903 56.4263C137.897 56.4697 137.901 56.5139 137.914 56.5556C137.928 56.5972 137.951 56.635 137.982 56.6661C138.013 56.6971 138.05 56.7205 138.092 56.7344C138.133 56.7483 138.177 56.7523 138.22 56.7461V57.0647L134.457 57.06Z" fill="white"/>
<path d="M157.317 47.85H163.785C164.484 47.8808 165.176 47.7101 165.782 47.3578C166.03 47.2041 166.233 46.9859 166.369 46.7261C166.505 46.4662 166.568 46.1744 166.553 45.8812C166.57 45.5895 166.506 45.2989 166.37 45.0407C166.234 44.7826 166.031 44.5667 165.782 44.4166C165.173 44.0747 164.482 43.91 163.785 43.941H157.317V47.85ZM157.317 56.103C157.299 56.2784 157.337 56.455 157.423 56.6082C157.494 56.6974 157.653 56.7414 157.896 56.7414V57.0612H153.715V56.7461C153.866 56.7558 154.017 56.7238 154.152 56.6534C154.249 56.5904 154.297 56.4085 154.297 56.1065V42.3159C154.314 42.1403 154.277 41.9637 154.192 41.8094C154.121 41.7203 153.962 41.6763 153.72 41.6763V41.3565H163.934C165.44 41.2664 166.926 41.7313 168.116 42.6642C168.58 43.0551 168.95 43.5473 169.198 44.1034C169.446 44.6596 169.564 45.2651 169.544 45.8741C169.596 47.0109 169.212 48.1242 168.473 48.9853C167.66 49.8267 166.577 50.3514 165.416 50.4666L169.333 56.1101C169.45 56.2937 169.593 56.4595 169.757 56.6023C169.894 56.7039 170.06 56.7555 170.23 56.7485V57.0683H165.519V56.7461C165.58 56.7422 165.64 56.7258 165.694 56.698C165.748 56.6702 165.797 56.6316 165.836 56.5844C165.777 56.3677 165.675 56.1654 165.536 55.99L161.679 50.387H157.315L157.317 56.103Z" fill="white"/>
<path d="M176.093 47.85H182.562C183.26 47.8808 183.953 47.7101 184.558 47.3578C184.807 47.2041 185.009 46.9859 185.145 46.7261C185.281 46.4662 185.345 46.1744 185.33 45.8812C185.346 45.5895 185.283 45.2989 185.147 45.0407C185.011 44.7826 184.807 44.5667 184.558 44.4166C183.949 44.0747 183.258 43.91 182.562 43.941H176.093V47.85ZM176.093 56.103C176.076 56.2784 176.113 56.455 176.2 56.6082C176.271 56.6974 176.429 56.7414 176.673 56.7414V57.0612H172.491V56.7461C172.643 56.7558 172.794 56.7238 172.928 56.6534C173.025 56.5904 173.074 56.4085 173.074 56.1065V42.3159C173.091 42.1401 173.054 41.9633 172.967 41.8094C172.898 41.7203 172.738 41.6763 172.495 41.6763V41.3565H182.709C184.215 41.2664 185.702 41.7313 186.891 42.6642C187.355 43.0551 187.726 43.5473 187.973 44.1034C188.221 44.6596 188.339 45.2651 188.32 45.8741C188.371 47.0109 187.987 48.1242 187.248 48.9853C186.435 49.8267 185.352 50.3514 184.191 50.4666L188.108 56.1101C188.225 56.2937 188.368 56.4595 188.532 56.6023C188.669 56.7039 188.836 56.7556 189.005 56.7485V57.0683H184.294V56.7461C184.355 56.7422 184.415 56.7258 184.469 56.698C184.524 56.6702 184.572 56.6316 184.611 56.5844C184.553 56.3677 184.45 56.1654 184.311 55.99L180.454 50.387H176.09L176.093 56.103Z" fill="white"/>
<path d="M194.97 56.1006C194.957 56.1928 194.963 56.2867 194.988 56.3764C195.013 56.4661 195.057 56.5495 195.116 56.6213C195.315 56.7238 195.541 56.7651 195.763 56.7402V57.0588H191.212V56.7461C191.435 56.7764 191.662 56.7348 191.86 56.6272C191.96 56.4734 192.002 56.2887 191.978 56.1065V42.3159C191.998 42.1362 191.952 41.9552 191.847 41.8082C191.656 41.693 191.432 41.6461 191.211 41.6751V41.3553H195.759V41.6751C195.53 41.6447 195.298 41.6915 195.098 41.8082C194.992 41.9548 194.945 42.136 194.966 42.3159L194.97 56.1006Z" fill="white"/>
<path d="M198.779 56.7461C199.009 56.7461 199.155 56.7057 199.217 56.6272C199.296 56.466 199.328 56.2855 199.31 56.1065V42.3159C199.31 41.8895 199.133 41.6759 198.779 41.6751V41.3565H212.515C212.987 41.3565 213.224 41.2138 213.224 40.9297H213.515V44.4962H213.224C213.224 44.1229 212.987 43.9363 212.515 43.9363H202.326V47.7703H208.968C209.441 47.7703 209.677 47.5749 209.677 47.1842H209.996V50.8019H209.677C209.677 50.465 209.441 50.2966 208.968 50.2966H202.326V54.5028H212.699C213.172 54.5028 213.408 54.3343 213.408 53.9975H213.7V57.5106H213.408C213.408 57.1935 213.172 57.035 212.699 57.035H198.779V56.7461Z" fill="white"/>
<path d="M220.022 47.85H226.487C227.185 47.8808 227.878 47.7101 228.483 47.3578C228.732 47.2041 228.935 46.9859 229.07 46.7261C229.206 46.4662 229.27 46.1744 229.255 45.8812C229.271 45.5895 229.208 45.2989 229.072 45.0407C228.936 44.7826 228.732 44.5667 228.483 44.4166C227.874 44.0747 227.183 43.91 226.487 43.941H220.022V47.85ZM220.022 56.103C220.005 56.2784 220.042 56.455 220.129 56.6082C220.198 56.6974 220.358 56.7414 220.601 56.7414V57.0612H216.42V56.7461C216.571 56.7558 216.723 56.7238 216.857 56.6534C216.954 56.5904 217.003 56.4085 217.003 56.1065V42.3159C217.019 42.1401 216.982 41.9633 216.896 41.8094C216.826 41.7203 216.667 41.6763 216.423 41.6763V41.3565H226.638C228.144 41.2664 229.63 41.7313 230.82 42.6642C231.284 43.0551 231.654 43.5473 231.902 44.1034C232.149 44.6596 232.268 45.2651 232.248 45.8741C232.3 47.0109 231.916 48.1242 231.176 48.9853C230.364 49.8267 229.281 50.3514 228.12 50.4666L232.037 56.1101C232.154 56.2937 232.297 56.4595 232.461 56.6023C232.598 56.7037 232.764 56.7553 232.934 56.7485V57.0683H228.223V56.7461C228.284 56.7422 228.343 56.7258 228.398 56.698C228.452 56.6702 228.501 56.6316 228.54 56.5844C228.481 56.3677 228.379 56.1654 228.24 55.99L224.383 50.387H220.022V56.103Z" fill="white"/>
<path d="M248.735 45.9858L248.401 45.7992V45.5067C248.401 45.2579 247.924 44.9206 246.972 44.495C245.699 43.9633 244.331 43.7007 242.953 43.7235C241.738 43.6497 240.522 43.8689 239.408 44.3631C239.072 44.5048 238.784 44.7405 238.577 45.0423C238.37 45.3441 238.254 45.6993 238.243 46.0655C238.243 46.9714 239.593 47.4596 242.293 47.5302C244.031 47.51 245.767 47.6525 247.479 47.9558C248.444 48.1493 249.305 48.6914 249.9 49.4799C250.495 50.2684 250.782 51.2486 250.708 52.2356C250.706 52.9724 250.512 53.6959 250.145 54.3336C249.778 54.9714 249.251 55.5011 248.617 55.8699C246.782 56.9119 244.687 57.3971 242.584 57.2668C241.133 57.2907 239.686 57.1164 238.283 56.7485C237.281 56.496 236.323 56.0954 235.438 55.5596C235.33 55.6029 235.232 55.6663 235.147 55.7463L234.878 55.6762L236.58 52.0549L236.915 52.2154V52.5614C236.915 53.1653 237.476 53.6753 238.596 54.0914C239.806 54.5242 241.082 54.7364 242.366 54.7179C243.753 54.7998 245.14 54.5555 246.416 54.0046C246.733 53.88 247.007 53.665 247.205 53.386C247.402 53.1071 247.514 52.7763 247.527 52.4342C247.527 51.3166 246.46 50.6866 244.326 50.5439C240.567 50.3133 238.591 50.1714 238.397 50.1183C237.485 50.001 236.65 49.5404 236.06 48.8292C235.471 48.1179 235.172 47.2087 235.222 46.2842C235.209 45.472 235.426 44.6727 235.847 43.9799C236.269 43.2871 236.878 42.7293 237.603 42.3717C239.298 41.5076 241.184 41.095 243.082 41.1734C244.309 41.1829 245.529 41.3621 246.707 41.706C247.712 41.9679 248.688 42.3337 249.618 42.7974C249.685 42.8015 249.753 42.7919 249.816 42.769C249.88 42.7461 249.938 42.7104 249.988 42.6642L250.332 42.7712L248.735 45.9858Z" fill="white"/>
<path d="M128.926 19.528C128.831 19.5348 128.741 19.5714 128.667 19.6326C128.578 19.735 128.511 19.8548 128.471 19.9845C128.43 20.1143 128.416 20.2511 128.431 20.3864V25.5674C128.411 25.7152 128.448 25.8651 128.535 25.9861C128.621 26.1072 128.751 26.1901 128.897 26.2177V26.5815C127.637 27.3125 126.311 27.9227 124.938 28.404C122.97 29.1194 120.898 29.4975 118.806 29.5227C116.013 29.6519 113.258 28.8265 110.991 27.1806C109.875 26.2942 108.987 25.1512 108.402 23.8479C107.817 22.5446 107.551 21.119 107.627 19.6909C107.575 18.2312 107.89 16.7819 108.541 15.4764C109.192 14.1709 110.159 13.0512 111.353 12.2202C113.622 10.6175 116.345 9.7955 119.116 9.87695C120.14 9.87636 121.163 9.97229 122.17 10.1635C123.036 10.3397 123.891 10.5659 124.731 10.8411C124.869 10.8918 125.447 11.1431 126.464 11.5948C126.73 11.7258 127.007 11.8305 127.292 11.9075C127.408 11.9085 127.523 11.8816 127.627 11.829C127.725 11.7842 127.807 11.712 127.864 11.621L128.225 11.7767L125.718 16.0875L125.355 15.8497L125.407 15.4075C125.407 14.9208 124.803 14.4088 123.596 13.8715C122.203 13.2542 120.694 12.9438 119.171 12.9608C117.187 12.8658 115.227 13.443 113.607 14.6002C112.852 15.1793 112.247 15.9343 111.846 16.8004C111.445 17.6665 111.259 18.6177 111.305 19.572C111.256 20.548 111.434 21.5221 111.825 22.4168C112.215 23.3115 112.808 24.1021 113.556 24.7257C115.055 25.8938 116.915 26.4928 118.81 26.4174C120.138 26.4371 121.459 26.2259 122.716 25.7933C123.449 25.5371 124.139 25.1681 124.76 24.6995V22.5215H120.309C119.758 22.5215 119.482 22.7383 119.482 23.1718H119.119V18.5353H119.482C119.482 18.9514 119.758 19.1595 120.309 19.1595H128.926V19.528Z" fill="white"/>
<path d="M135.473 18.357H141.797C142.48 18.3869 143.157 18.2194 143.748 17.8743C143.991 17.7245 144.19 17.5112 144.323 17.2572C144.456 17.0032 144.518 16.7178 144.503 16.4311C144.519 16.1457 144.457 15.8614 144.324 15.6089C144.191 15.3564 143.992 15.1453 143.748 14.9985C143.154 14.6628 142.478 14.5006 141.797 14.5301H135.473V18.357ZM135.473 26.4257C135.456 26.5974 135.492 26.7703 135.577 26.9203C135.645 27.0071 135.8 27.0511 136.042 27.0511V27.3625H131.953V27.0511C132.101 27.0605 132.249 27.0289 132.381 26.9595C132.476 26.8977 132.523 26.7217 132.523 26.4245V12.9442C132.54 12.7721 132.504 12.5988 132.419 12.4484C132.35 12.3616 132.195 12.3177 131.953 12.3177V12.0062H141.942C143.414 11.9179 144.867 12.3722 146.03 13.2842C146.484 13.6657 146.845 14.1459 147.087 14.6886C147.329 15.2313 147.446 15.8223 147.427 16.4168C147.477 17.5284 147.102 18.6172 146.379 19.4591C145.584 20.2816 144.526 20.7945 143.391 20.9071L147.22 26.4257C147.335 26.6052 147.474 26.7674 147.634 26.9072C147.768 27.0071 147.933 27.0578 148.1 27.0511V27.3625H143.49V27.0511C143.55 27.0468 143.608 27.0306 143.662 27.0032C143.715 26.9758 143.763 26.9379 143.801 26.8918C143.743 26.6795 143.643 26.4813 143.507 26.3092L139.739 20.831H135.473V26.4257Z" fill="white"/>
<path d="M160.214 20.9107L157.739 15.4003L155.29 20.913L160.214 20.9107ZM149.431 27.3625V27.0511C149.507 27.0547 149.583 27.0427 149.654 27.0157C149.725 26.9887 149.79 26.9473 149.844 26.8941C150.001 26.6994 150.123 26.4795 150.207 26.2438L155.874 13.3329L156.016 12.9489C156.051 12.8686 156.073 12.7831 156.081 12.6957C156.081 12.4825 155.943 12.3585 155.667 12.3236V12.0062H160.169V12.3177C159.876 12.3177 159.729 12.4258 159.729 12.6398C159.729 12.6581 159.79 12.8372 159.91 13.1772L165.913 26.2438C166.012 26.4855 166.143 26.7129 166.302 26.9203C166.426 27.0199 166.583 27.0668 166.741 27.0511V27.3625H162.605V27.0511C162.864 27.0511 162.994 26.9809 162.994 26.8418C162.944 26.5873 162.856 26.3417 162.735 26.1131C162.286 25.1762 161.846 24.2394 161.415 23.3026H154.324C154.134 23.7187 153.72 24.6036 153.081 25.9573C152.944 26.2001 152.848 26.464 152.797 26.7384C152.791 26.7808 152.795 26.8241 152.808 26.8647C152.822 26.9054 152.844 26.9423 152.875 26.9726C152.905 27.0029 152.941 27.0258 152.982 27.0394C153.022 27.053 153.065 27.057 153.107 27.0511V27.3625H149.431Z" fill="white"/>
<path d="M186.017 12.0062V12.3188C185.869 12.3092 185.722 12.3405 185.59 12.4092C185.497 12.471 185.447 12.647 185.447 12.9442V26.4305C185.424 26.6089 185.466 26.7896 185.565 26.9393C185.696 27.0342 185.857 27.0766 186.017 27.0582V27.3697H182.032V27.0582C182.359 27.0582 182.525 26.849 182.525 26.4317L182.474 16.9589L177.142 27.3697H176.859L171.531 16.8472V26.4305C171.51 26.6088 171.552 26.7889 171.649 26.9393C171.798 27.0381 171.977 27.0802 172.154 27.0582V27.3697H168.479V27.0582C168.704 27.0582 168.846 27.019 168.906 26.9393C168.985 26.782 169.016 26.6054 168.997 26.4305V12.9442C168.997 12.5265 168.825 12.3181 168.479 12.3188V12.0062H173.06V12.3188C172.698 12.3188 172.517 12.4508 172.517 12.7147C172.535 12.8373 172.58 12.9542 172.649 13.0571C172.807 13.3567 172.922 13.5766 172.997 13.7169L177.178 21.8498L181.737 13.1713C181.812 13.0702 181.879 12.9637 181.938 12.8526C181.985 12.78 182.019 12.6995 182.038 12.6149C182.038 12.4199 181.841 12.3236 181.447 12.3236V12.0109L186.017 12.0062Z" fill="white"/>
<path d="M214.444 15.7023L214.47 15.285C214.47 14.9046 213.815 14.4362 212.503 13.8798C211.112 13.2848 209.617 12.9752 208.105 12.9691C206.167 12.8697 204.25 13.409 202.645 14.5051C201.861 15.1084 201.236 15.8963 200.825 16.7995C200.414 17.7027 200.23 18.6935 200.29 19.685C200.232 20.6815 200.422 21.6768 200.842 22.5811C201.262 23.4854 201.9 24.2702 202.697 24.8648C204.39 25.9814 206.392 26.5284 208.415 26.4269C210.049 26.4366 211.659 26.0335 213.098 25.2547C214.427 24.5414 215.091 23.8562 215.091 23.1992L214.987 22.7236L215.247 22.5156L217.912 26.421L217.704 26.4982L217.393 26.421C216.29 27.3189 215.051 28.0326 213.722 28.5347C211.931 29.2218 210.025 29.5576 208.107 29.5239C205.288 29.6364 202.509 28.8231 200.189 27.2068C199.019 26.3503 198.08 25.2141 197.457 23.9008C196.833 22.5875 196.545 21.1385 196.618 19.685C196.579 18.2943 196.871 16.9145 197.47 15.6604C198.069 14.4063 198.956 13.3141 200.059 12.4746C202.423 10.6831 205.328 9.76419 208.286 9.8722C209.783 9.87176 211.272 10.0818 212.711 10.4963L216.441 11.9028C216.558 11.9068 216.674 11.8801 216.777 11.8252C216.881 11.7704 216.969 11.6894 217.032 11.5901L217.393 11.7197L214.832 15.9104L214.444 15.7023Z" fill="white"/>
<path d="M229.713 20.9107L227.237 15.4003L224.789 20.913L229.713 20.9107ZM218.93 27.3625V27.0511C219.006 27.0545 219.081 27.0424 219.153 27.0154C219.224 26.9884 219.289 26.9471 219.343 26.8941C219.499 26.6993 219.621 26.4794 219.705 26.2438L225.372 13.3329C225.424 13.1915 225.472 13.0631 225.515 12.9489C225.55 12.8684 225.571 12.783 225.58 12.6957C225.58 12.4825 225.442 12.3585 225.165 12.3236V12.0062H229.668V12.3177C229.374 12.3177 229.228 12.4258 229.228 12.6398C229.228 12.6577 229.287 12.8372 229.409 13.1772L235.412 26.2438C235.511 26.4854 235.641 26.7128 235.799 26.9203C235.924 27.0196 236.082 27.0665 236.24 27.0511V27.3625H232.104V27.0511C232.363 27.0511 232.491 26.9809 232.491 26.8418C232.442 26.5873 232.354 26.3417 232.233 26.1131C231.783 25.1762 231.344 24.2394 230.914 23.3026H223.823C223.632 23.7187 223.218 24.6036 222.58 25.9573C222.443 26.2001 222.347 26.464 222.296 26.7384C222.289 26.7808 222.293 26.824 222.307 26.8647C222.32 26.9053 222.343 26.9423 222.373 26.9726C222.403 27.0029 222.439 27.0258 222.48 27.0394C222.52 27.0531 222.563 27.057 222.605 27.0511V27.3625H218.93Z" fill="white"/>
<path d="M241.378 18.357H247.703C248.385 18.385 249.061 18.2163 249.651 17.8708C249.894 17.7209 250.093 17.5077 250.226 17.2536C250.359 16.9996 250.421 16.7142 250.406 16.4275C250.421 16.1427 250.359 15.8592 250.226 15.6073C250.093 15.3555 249.894 15.145 249.651 14.9985C249.056 14.6628 248.381 14.5006 247.7 14.5301H241.378V18.357ZM241.378 26.4257C241.361 26.5974 241.397 26.7703 241.482 26.9203C241.55 27.0071 241.706 27.0511 241.955 27.0511V27.3625H237.864V27.0511C238.013 27.0607 238.161 27.029 238.292 26.9595C238.387 26.8977 238.435 26.7217 238.435 26.4245V12.9442C238.452 12.7721 238.416 12.599 238.331 12.4484C238.263 12.3616 238.107 12.3177 237.858 12.3177V12.0062H247.847C249.319 11.9179 250.773 12.3722 251.935 13.2842C252.389 13.6655 252.751 14.1457 252.993 14.6885C253.235 15.2312 253.352 15.8222 253.333 16.4168C253.383 17.5284 253.008 18.6169 252.285 19.4591C251.49 20.2816 250.431 20.7945 249.296 20.9071L253.125 26.4257C253.241 26.605 253.38 26.7671 253.54 26.9072C253.675 27.0074 253.839 27.0582 254.006 27.0511V27.3625H249.397V27.0511C249.456 27.0468 249.515 27.0305 249.568 27.0031C249.621 26.9758 249.668 26.9379 249.706 26.8918C249.649 26.6795 249.549 26.4813 249.413 26.3092L245.642 20.831H241.378V26.4257Z" fill="white"/>
</g>
<defs>
<clipPath id="clip0_609:1649">
<rect width="254" height="80" fill="white"/>
</clipPath>
</defs>
</svg>
