<svg xmlns="http://www.w3.org/2000/svg" xmlns:xlink="http://www.w3.org/1999/xlink" viewBox="0 0 346.05 47.82"><defs><style>.cls-1,.cls-5{fill:none;}.cls-2{clip-path:url(#clip-path);}.cls-3,.cls-6,.cls-7{fill:#fff;}.cls-4{fill:#0054a4;}.cls-5{stroke:#0054a4;}.cls-6,.cls-7{stroke:#fff;}.cls-6{stroke-miterlimit:10;}</style><clipPath id="clip-path" transform="translate(0 0)"><polyline class="cls-1" points="0 0 0 47.82 346.05 47.82 346.05 0"/></clipPath></defs><g id="Layer_2" data-name="Layer 2"><g id="Layer_1-2" data-name="Layer 1"><g class="cls-2"><path d="M149.76.2c.91.14,2,.37,2.23,1.32s-.68,1.18-1.1,1.74c0,.48-.44,1.16.13,1.46,2.95-.14,6.28-.08,9,1.16,1.65.77,3.21,1.65,4.91,2.27a19.12,19.12,0,0,0,2.35,1c1.62.28,3.34.82,5,.59,2.37.76,4.15-.86,6.48-.42,2.15-.63,4.64.23,6.81.58,1.82.67,3.75,1.51,4.81,3.26-.17,4.85-.75,9.74-.91,14.75,0,1.13-.27,2.3-.19,3.48-.35,1.45.09,3-.27,4.51-.81.12-1.47-.47-2.26-.67a19.27,19.27,0,0,0-3.44-.92,18.32,18.32,0,0,0-8.24.36c-2.56.26-5,.65-7.8,0-.84-.45-1.84-.47-2.73-.85a49.39,49.39,0,0,0-5.09-2.09,14.68,14.68,0,0,0-6.53-1c-1,1.14-.91,3-1.65,4.29a24.75,24.75,0,0,1-1.85,4.76,19.63,19.63,0,0,1-1,2.39,6.06,6.06,0,0,1-.95,1.75c-.25,1.34,0,2.61-.55,3.85a4.61,4.61,0,0,1-2.74-.33s.8-5.39.91-8.35c0-2,.23-3.88.35-5.8a69.13,69.13,0,0,0,.51-7.61c.23-1.11,0-2,.27-3.07,0,0,.37-3.58.42-4.46.35-5,.94-10.23,1.24-15.1-.24-.83-1.91-1.22-1.2-2.35A1.22,1.22,0,0,1,147.85,0c.56.42,1.24,0,1.91.19" transform="translate(0 0)"/></g><path class="cls-3" d="M149.93,3.24a15.49,15.49,0,0,0-.09,2.8l-1.09,11c-.35,2.62-.68,8.21-.68,8.21-.28,1.94-.32,3.83-.55,5.74-.38,4.42-.68,8.57-1.05,12.92-.29.93,0,1.93-.28,2.78-.16.39-.66.14-.94.11-.93-.38.17-1.47,0-2.21.16-1.19-.07-2.5.34-3.7a7.76,7.76,0,0,1,.3-3,22.56,22.56,0,0,1,.1-3.28c.35-3.79.46-8,.88-11.66l.38-7.4L148,8.74c.18-1.71.37-3.94.63-5.68.33-.45,1.15-.21,1.35.18" transform="translate(0 0)"/><path class="cls-3" d="M162,7.67c.94.58,2,.89,2.9,1.43a23.27,23.27,0,0,0,6.89,1.65c3.22,0,6.26-.83,9.44-.9a12.22,12.22,0,0,1,7.59,2.64,6.35,6.35,0,0,1,.59,3.18c.31.48-.07,1.18-.28,1.64a67.94,67.94,0,0,1-.32,7.71c-.2,2-.18,4-.28,6.16.19.94-.59,2.14-.37,3.13-.11.19,0,.74-.35.67a30.54,30.54,0,0,1-3.69-1.17,21.77,21.77,0,0,0-8.31-.13c-1.14.08-2.15.65-3.31.57-1.78.47-3.76-.25-5.57-.32a17.91,17.91,0,0,1-3.23-1.26c-3.19-1.09-6.27-2.89-10-2.71l-1.08-.14c-1.4.7-.84,2.5-1.6,3.63-.43,1.49-.9,2.89-1.44,4.28a4.06,4.06,0,0,1-.45.88,5.85,5.85,0,0,1-1.55,2.72,2.83,2.83,0,0,1,.16-1.91c.46-1.32,1.1-2.59,1.45-4,.55-1.51,1.07-3,1.47-4.59.25-1.59.74-2.82,1-4.49a44.39,44.39,0,0,0,.79-12.78c-.18-1.47-.38-2.94-.56-4.4-.18-.22-.07-.49-.13-.7-.43-.89-.23-2-.91-2.83a.61.61,0,0,1,.55-.3c3.13,0,6.84.08,9.44,1.75l1.12.59" transform="translate(0 0)"/><path class="cls-3" d="M151.23,9.32a12.07,12.07,0,0,1,.38,2.58,43.11,43.11,0,0,1,.27,6,18.39,18.39,0,0,1-.2,4.25c-.53,2.47-.81,5.23-1.38,7.67-.45.47-.21,1.21-.55,1.74,0,.92-.64,1.54-.73,2.46-.28.37-.18.94-.42,1.32,0,.4-.31.65-.42,1-.33,0-.16-.42-.22-.62.41-3.18.29-6.41.78-9.57.39-4.15.94-8.39,1.15-12.35-.19-1,.36-2,.26-3l.37-3.22c.08,0,.21-.06.24,0a7.39,7.39,0,0,1,.47,1.65" transform="translate(0 0)"/><path class="cls-4" d="M170.28,23.38l-1.38-.25-1.24,0-.8,1.88-1.3,0-1.15-.23,2.1-5.07,1.62-4.45,1.55.38,1.63.06,1,4.62,1.41,5.41-1.57-.05-1.51-.27-.36-2M169.15,21l.84.2-.26-1.49-.25-1.44L168.38,21Z" transform="translate(0 0)"/><path class="cls-5" d="M162.34,18.2l-1.41,2.93-.86-2.53-1.63,2.3-.94-2.59-1.4,2.28-.9-3.09m28.49,3-1.41,2.93-.86-2.54-1.62,2.3-.94-2.59-1.41,2.29-.9-3.1" transform="translate(0 0)"/><g class="cls-2"><path class="cls-6" d="M.5,32v-.56a1.78,1.78,0,0,0,1.34-.91,30.73,30.73,0,0,0,1.52-4.19L8.13,11.14h.5l5.7,17.56a8.16,8.16,0,0,0,.92,2.18,1.84,1.84,0,0,0,1.15.57V32H10.52v-.56a4.15,4.15,0,0,0,1.3-.29c.2-.12.29-.4.29-.86a4.32,4.32,0,0,0-.11-.8,10.93,10.93,0,0,0-.31-1.22l-.92-3h-6c-.6,2-1,3.27-1.07,3.72a4.37,4.37,0,0,0-.18,1.07A1.22,1.22,0,0,0,4,31.18a2.9,2.9,0,0,0,1.09.27V32H.5m9.88-8L7.76,15.51,5.12,24.05Z" transform="translate(0 0)"/><path class="cls-7" d="M.5,32v-.56a1.78,1.78,0,0,0,1.34-.91,30.73,30.73,0,0,0,1.52-4.19L8.13,11.14h.5l5.7,17.56a8.16,8.16,0,0,0,.92,2.18,1.84,1.84,0,0,0,1.15.57V32H10.52v-.56a4.15,4.15,0,0,0,1.3-.29c.2-.12.29-.4.29-.86a4.32,4.32,0,0,0-.11-.8,10.93,10.93,0,0,0-.31-1.22l-.92-3h-6c-.6,2-1,3.27-1.07,3.72a4.37,4.37,0,0,0-.18,1.07A1.22,1.22,0,0,0,4,31.18a2.9,2.9,0,0,0,1.09.27V32Zm9.88-8L7.76,15.51,5.12,24.05Z" transform="translate(0 0)"/></g><path class="cls-6" d="M22.08,17.61H31.2l.06,3.68h-.37a5.21,5.21,0,0,0-.72-2.25,2.39,2.39,0,0,0-1.84-.53h-.88V29.68a2.58,2.58,0,0,0,.28,1.54,2.09,2.09,0,0,0,1.25.39V32H24.29v-.41c.69-.07,1.11-.22,1.28-.45a3.66,3.66,0,0,0,.26-1.73V18.52H25a2.4,2.4,0,0,0-1.8.52,4.39,4.39,0,0,0-.73,2.26H22l.07-3.69" transform="translate(0 0)"/><path class="cls-7" d="M22.08,17.61H31.2l.06,3.68h-.37a5.21,5.21,0,0,0-.72-2.25,2.39,2.39,0,0,0-1.84-.53h-.88V29.68a2.58,2.58,0,0,0,.28,1.54,2.09,2.09,0,0,0,1.25.39V32H24.29v-.41c.69-.07,1.11-.22,1.28-.45a3.66,3.66,0,0,0,.26-1.73V18.52H25a2.4,2.4,0,0,0-1.8.52,4.39,4.39,0,0,0-.73,2.26H22Z" transform="translate(0 0)"/><path class="cls-6" d="M35.33,31.62a2,2,0,0,0,1.14-.43,2.63,2.63,0,0,0,.26-1.51V20a2.9,2.9,0,0,0-.26-1.5A1.63,1.63,0,0,0,35.33,18v-.4h4.53V18a1.83,1.83,0,0,0-1.19.4,2.19,2.19,0,0,0-.31,1.42V30.3a1.48,1.48,0,0,0,.09.57.5.5,0,0,0,.39.26l.38,0H40a6.14,6.14,0,0,0,2.9-.47,5,5,0,0,0,1.46-2.43h.4L44,32H35.33v-.4" transform="translate(0 0)"/><path class="cls-7" d="M35.33,31.62a2,2,0,0,0,1.14-.43,2.63,2.63,0,0,0,.26-1.51V20a2.9,2.9,0,0,0-.26-1.5A1.63,1.63,0,0,0,35.33,18v-.4h4.53V18a1.83,1.83,0,0,0-1.19.4,2.19,2.19,0,0,0-.31,1.42V30.3a1.48,1.48,0,0,0,.09.57.5.5,0,0,0,.39.26l.38,0H40a6.14,6.14,0,0,0,2.9-.47,5,5,0,0,0,1.46-2.43h.4L44,32H35.33Z" transform="translate(0 0)"/><path class="cls-6" d="M48.72,32v-.41a1.25,1.25,0,0,0,1-.63,17.64,17.64,0,0,0,1.07-2.91L54.1,17.4h.34l4,12.3A5.38,5.38,0,0,0,59,31.22a1.26,1.26,0,0,0,.78.41V32H55.73v-.41a2.67,2.67,0,0,0,.92-.2q.21-.12.21-.6a3.78,3.78,0,0,0-.08-.56,8.23,8.23,0,0,0-.22-.85l-.64-2.1h-4.2c-.44,1.43-.69,2.3-.78,2.61a3.24,3.24,0,0,0-.12.75.83.83,0,0,0,.33.76,1.91,1.91,0,0,0,.77.19V32h-3.2m6.93-5.59-1.84-6-1.82,6Z" transform="translate(0 0)"/><path class="cls-7" d="M48.72,32v-.41a1.25,1.25,0,0,0,1-.63,17.64,17.64,0,0,0,1.07-2.91L54.1,17.4h.34l4,12.3A5.38,5.38,0,0,0,59,31.22a1.26,1.26,0,0,0,.78.41V32H55.73v-.41a2.67,2.67,0,0,0,.92-.2q.21-.12.21-.6a3.78,3.78,0,0,0-.08-.56,8.23,8.23,0,0,0-.22-.85l-.64-2.1h-4.2c-.44,1.43-.69,2.3-.78,2.61a3.24,3.24,0,0,0-.12.75.83.83,0,0,0,.33.76,1.91,1.91,0,0,0,.77.19V32Zm6.93-5.59-1.84-6-1.82,6Z" transform="translate(0 0)"/><path class="cls-6" d="M63.77,31.63A1.72,1.72,0,0,0,65.05,31a5.19,5.19,0,0,0,.29-2.2V19.23l-.22-.35a2.18,2.18,0,0,0-.6-.69,1.85,1.85,0,0,0-.74-.16v-.4h2.77L72.71,28V20.81a4.48,4.48,0,0,0-.39-2.32A1.69,1.69,0,0,0,71.18,18v-.4H75V18a1.6,1.6,0,0,0-1.22.6,4.93,4.93,0,0,0-.31,2.2V32.32h-.28l-7.09-12v8.47a4.52,4.52,0,0,0,.39,2.33,1.64,1.64,0,0,0,1.11.48V32H63.77v-.4" transform="translate(0 0)"/><path class="cls-7" d="M63.77,31.63A1.72,1.72,0,0,0,65.05,31a5.19,5.19,0,0,0,.29-2.2V19.23l-.22-.35a2.18,2.18,0,0,0-.6-.69,1.85,1.85,0,0,0-.74-.16v-.4h2.77L72.71,28V20.81a4.48,4.48,0,0,0-.39-2.32A1.69,1.69,0,0,0,71.18,18v-.4H75V18a1.6,1.6,0,0,0-1.22.6,4.93,4.93,0,0,0-.31,2.2V32.32h-.28l-7.09-12v8.47a4.52,4.52,0,0,0,.39,2.33,1.64,1.64,0,0,0,1.11.48V32H63.77Z" transform="translate(0 0)"/><path class="cls-6" d="M79,17.63h9.12l.06,3.69h-.37a5.27,5.27,0,0,0-.72-2.26,2.42,2.42,0,0,0-1.85-.52h-.87V29.69a2.52,2.52,0,0,0,.28,1.55,2.06,2.06,0,0,0,1.25.39V32H81.25v-.41a1.88,1.88,0,0,0,1.28-.45,3.59,3.59,0,0,0,.25-1.74V18.54h-.87a2.42,2.42,0,0,0-1.81.52,4.51,4.51,0,0,0-.72,2.26H79L79,17.63" transform="translate(0 0)"/><path class="cls-7" d="M79,17.63h9.12l.06,3.69h-.37a5.27,5.27,0,0,0-.72-2.26,2.42,2.42,0,0,0-1.85-.52h-.87V29.69a2.52,2.52,0,0,0,.28,1.55,2.06,2.06,0,0,0,1.25.39V32H81.25v-.41a1.88,1.88,0,0,0,1.28-.45,3.59,3.59,0,0,0,.25-1.74V18.54h-.87a2.42,2.42,0,0,0-1.81.52,4.51,4.51,0,0,0-.72,2.26H79Z" transform="translate(0 0)"/><path class="cls-6" d="M92.38,31.63a2,2,0,0,0,1.24-.39,2.55,2.55,0,0,0,.29-1.54V20a2.69,2.69,0,0,0-.28-1.53A1.78,1.78,0,0,0,92.38,18v-.4h4.69V18a1.78,1.78,0,0,0-1.25.41A2.69,2.69,0,0,0,95.54,20V29.7a2.55,2.55,0,0,0,.29,1.54,2.08,2.08,0,0,0,1.24.4V32H92.38v-.41" transform="translate(0 0)"/><path class="cls-7" d="M92.38,31.63a2,2,0,0,0,1.24-.39,2.55,2.55,0,0,0,.29-1.54V20a2.69,2.69,0,0,0-.28-1.53A1.78,1.78,0,0,0,92.38,18v-.4h4.69V18a1.78,1.78,0,0,0-1.25.41A2.69,2.69,0,0,0,95.54,20V29.7a2.55,2.55,0,0,0,.29,1.54,2.08,2.08,0,0,0,1.24.4V32H92.38Z" transform="translate(0 0)"/><path class="cls-6" d="M108.71,17.77a7,7,0,0,0,1,.35.64.64,0,0,0,.43-.17.93.93,0,0,0,.28-.53h.31l.16,4.88h-.38a8.28,8.28,0,0,0-.83-2.35,3,3,0,0,0-2.64-1.69,3.15,3.15,0,0,0-2.74,1.81,9.78,9.78,0,0,0-1.07,5,8.41,8.41,0,0,0,1.12,4.64,3.3,3.3,0,0,0,2.83,1.74,3.64,3.64,0,0,0,2.29-.81,7.6,7.6,0,0,0,1.32-1.37l.31.4a6.21,6.21,0,0,1-1.32,1.61,4.37,4.37,0,0,1-2.92,1.17,4.72,4.72,0,0,1-4.1-2.24,8.89,8.89,0,0,1-1.4-5.17,9.17,9.17,0,0,1,1.48-5.33,4.73,4.73,0,0,1,4.06-2.26,5.07,5.07,0,0,1,1.78.35" transform="translate(0 0)"/><path class="cls-7" d="M108.71,17.77a7,7,0,0,0,1,.35.64.64,0,0,0,.43-.17.93.93,0,0,0,.28-.53h.31l.16,4.88h-.38a8.28,8.28,0,0,0-.83-2.35,3,3,0,0,0-2.64-1.69,3.15,3.15,0,0,0-2.74,1.81,9.78,9.78,0,0,0-1.07,5,8.41,8.41,0,0,0,1.12,4.64,3.3,3.3,0,0,0,2.83,1.74,3.64,3.64,0,0,0,2.29-.81,7.6,7.6,0,0,0,1.32-1.37l.31.4a6.21,6.21,0,0,1-1.32,1.61,4.37,4.37,0,0,1-2.92,1.17,4.72,4.72,0,0,1-4.1-2.24,8.89,8.89,0,0,1-1.4-5.17,9.17,9.17,0,0,1,1.48-5.33,4.73,4.73,0,0,1,4.06-2.26A5.07,5.07,0,0,1,108.71,17.77Z" transform="translate(0 0)"/><path class="cls-6" d="M115.46,32.05v-.41a1.25,1.25,0,0,0,1-.63,17.64,17.64,0,0,0,1.07-2.91l3.35-10.67h.34l4,12.29a6.29,6.29,0,0,0,.63,1.53,1.31,1.31,0,0,0,.78.4v.4h-4.09v-.41a2.67,2.67,0,0,0,.92-.2q.21-.12.21-.6a3.78,3.78,0,0,0-.08-.56,6.28,6.28,0,0,0-.22-.85l-.64-2.1h-4.2q-.66,2.15-.78,2.61a3.32,3.32,0,0,0-.12.75.83.83,0,0,0,.33.76,1.91,1.91,0,0,0,.77.19v.41h-3.2m6.93-5.59-1.83-6-1.83,6Z" transform="translate(0 0)"/><path class="cls-7" d="M115.46,32.05v-.41a1.25,1.25,0,0,0,1-.63,17.64,17.64,0,0,0,1.07-2.91l3.35-10.67h.34l4,12.29a6.29,6.29,0,0,0,.63,1.53,1.31,1.31,0,0,0,.78.4v.4h-4.09v-.41a2.67,2.67,0,0,0,.92-.2q.21-.12.21-.6a3.78,3.78,0,0,0-.08-.56,6.28,6.28,0,0,0-.22-.85l-.64-2.1h-4.2q-.66,2.15-.78,2.61a3.32,3.32,0,0,0-.12.75.83.83,0,0,0,.33.76,1.91,1.91,0,0,0,.77.19v.41Zm6.93-5.59-1.83-6-1.83,6Z" transform="translate(0 0)"/><path class="cls-6" d="M207.35,25.89a12.78,12.78,0,0,0,1.36,3.33,4,4,0,0,0,3.38,2.17,2.43,2.43,0,0,0,1.9-.94,3.94,3.94,0,0,0,.8-2.62,4.36,4.36,0,0,0-.81-2.64,14.93,14.93,0,0,0-2.22-2.14l-2-1.66a8.92,8.92,0,0,1-1.41-1.53,5.82,5.82,0,0,1-1-3.25,6.47,6.47,0,0,1,1.16-3.91,3.62,3.62,0,0,1,3.05-1.56,4.58,4.58,0,0,1,1.89.53,6.06,6.06,0,0,0,1.26.52.62.62,0,0,0,.58-.27,2.3,2.3,0,0,0,.25-.78h.47l.5,6.6H216a7.73,7.73,0,0,0-1.79-4.17,3.63,3.63,0,0,0-2.44-1.18,2.14,2.14,0,0,0-1.63.75,2.94,2.94,0,0,0-.7,2.09,3.75,3.75,0,0,0,.54,2.05,7.66,7.66,0,0,0,1.66,1.8l2,1.69a12.15,12.15,0,0,1,2.67,2.89,6.23,6.23,0,0,1,.76,3.15,6.1,6.1,0,0,1-1.36,4.07,4.32,4.32,0,0,1-3.47,1.64,5.26,5.26,0,0,1-2.22-.55,6.59,6.59,0,0,0-1.32-.55.52.52,0,0,0-.54.34,2.55,2.55,0,0,0-.19.72h-.5l-.68-6.59h.53" transform="translate(0 0)"/><path class="cls-7" d="M207.35,25.89a12.78,12.78,0,0,0,1.36,3.33,4,4,0,0,0,3.38,2.17,2.43,2.43,0,0,0,1.9-.94,3.94,3.94,0,0,0,.8-2.62,4.36,4.36,0,0,0-.81-2.64,14.93,14.93,0,0,0-2.22-2.14l-2-1.66a8.92,8.92,0,0,1-1.41-1.53,5.82,5.82,0,0,1-1-3.25,6.47,6.47,0,0,1,1.16-3.91,3.62,3.62,0,0,1,3.05-1.56,4.58,4.58,0,0,1,1.89.53,6.06,6.06,0,0,0,1.26.52.62.62,0,0,0,.58-.27,2.3,2.3,0,0,0,.25-.78h.47l.5,6.6H216a7.73,7.73,0,0,0-1.79-4.17,3.63,3.63,0,0,0-2.44-1.18,2.14,2.14,0,0,0-1.63.75,2.94,2.94,0,0,0-.7,2.09,3.75,3.75,0,0,0,.54,2.05,7.66,7.66,0,0,0,1.66,1.8l2,1.69a12.15,12.15,0,0,1,2.67,2.89,6.23,6.23,0,0,1,.76,3.15,6.1,6.1,0,0,1-1.36,4.07,4.32,4.32,0,0,1-3.47,1.64,5.26,5.26,0,0,1-2.22-.55,6.59,6.59,0,0,0-1.32-.55.52.52,0,0,0-.54.34,2.55,2.55,0,0,0-.19.72h-.5l-.68-6.59Z" transform="translate(0 0)"/><path class="cls-6" d="M223.91,31.68a1.78,1.78,0,0,0,1.17-.47,3.64,3.64,0,0,0,.24-1.72V20a2.72,2.72,0,0,0-.27-1.5,1.56,1.56,0,0,0-1.14-.44v-.4h4.44v.4a1.6,1.6,0,0,0-1.14.44,2.72,2.72,0,0,0-.27,1.5v4.25h4.91V20a2.85,2.85,0,0,0-.26-1.5,1.57,1.57,0,0,0-1.15-.43v-.41h4.44v.41a1.56,1.56,0,0,0-1.14.43,2.72,2.72,0,0,0-.27,1.5v9.72a2.84,2.84,0,0,0,.26,1.51,1.73,1.73,0,0,0,1.15.43v.41h-4.44v-.41a1.69,1.69,0,0,0,1.17-.46,3.69,3.69,0,0,0,.24-1.73V25.24h-4.91v4.5a2.87,2.87,0,0,0,.26,1.51,1.69,1.69,0,0,0,1.14.43v.4h-4.43v-.4" transform="translate(0 0)"/><path class="cls-7" d="M223.91,31.68a1.78,1.78,0,0,0,1.17-.47,3.64,3.64,0,0,0,.24-1.72V20a2.72,2.72,0,0,0-.27-1.5,1.56,1.56,0,0,0-1.14-.44v-.4h4.44v.4a1.6,1.6,0,0,0-1.14.44,2.72,2.72,0,0,0-.27,1.5v4.25h4.91V20a2.85,2.85,0,0,0-.26-1.5,1.57,1.57,0,0,0-1.15-.43v-.41h4.44v.41a1.56,1.56,0,0,0-1.14.43,2.72,2.72,0,0,0-.27,1.5v9.72a2.84,2.84,0,0,0,.26,1.51,1.73,1.73,0,0,0,1.15.43v.41h-4.44v-.41a1.69,1.69,0,0,0,1.17-.46,3.69,3.69,0,0,0,.24-1.73V25.24h-4.91v4.5a2.87,2.87,0,0,0,.26,1.51,1.69,1.69,0,0,0,1.14.43v.4h-4.43Z" transform="translate(0 0)"/><path class="cls-6" d="M239.07,31.68a2.09,2.09,0,0,0,1.25-.39,2.59,2.59,0,0,0,.28-1.55V20a2.69,2.69,0,0,0-.29-1.54,1.84,1.84,0,0,0-1.25-.4v-.41h4.69v.41a1.81,1.81,0,0,0-1.24.4,2.6,2.6,0,0,0-.29,1.54v9.71a2.59,2.59,0,0,0,.28,1.55,2.09,2.09,0,0,0,1.25.39v.41h-4.69v-.41" transform="translate(0 0)"/><path class="cls-7" d="M239.07,31.68a2.09,2.09,0,0,0,1.25-.39,2.59,2.59,0,0,0,.28-1.55V20a2.69,2.69,0,0,0-.29-1.54,1.84,1.84,0,0,0-1.25-.4v-.41h4.69v.41a1.81,1.81,0,0,0-1.24.4,2.6,2.6,0,0,0-.29,1.54v9.71a2.59,2.59,0,0,0,.28,1.55,2.09,2.09,0,0,0,1.25.39v.41h-4.69Z" transform="translate(0 0)"/><path class="cls-6" d="M247.89,31.68q.95-.11,1.17-.48a3.76,3.76,0,0,0,.24-1.7V20a2.81,2.81,0,0,0-.26-1.48,1.56,1.56,0,0,0-1.14-.46v-.41h4.25a4.26,4.26,0,0,1,3.13,1.08,3.81,3.81,0,0,1,1.08,2.84,4,4,0,0,1-1.19,3.23,4.48,4.48,0,0,1-3,1l-.66,0-.6,0v4a2.69,2.69,0,0,0,.28,1.53,2,2,0,0,0,1.25.41v.4h-4.56v-.41m5.46-12.8a3.19,3.19,0,0,0-1.71-.41c-.32,0-.53,0-.6.13a1,1,0,0,0-.11.59V24.9a4.73,4.73,0,0,0,.57.08l.25,0a3,3,0,0,0,1.73-.43,3.32,3.32,0,0,0,1.14-2.93A2.94,2.94,0,0,0,253.35,18.88Z" transform="translate(0 0)"/><path class="cls-7" d="M247.89,31.68q.95-.11,1.17-.48a3.76,3.76,0,0,0,.24-1.7V20a2.81,2.81,0,0,0-.26-1.48,1.56,1.56,0,0,0-1.14-.46v-.41h4.25a4.26,4.26,0,0,1,3.13,1.08,3.81,3.81,0,0,1,1.08,2.84,4,4,0,0,1-1.19,3.23,4.48,4.48,0,0,1-3,1l-.66,0-.6,0v4a2.69,2.69,0,0,0,.28,1.53,2,2,0,0,0,1.25.41v.4h-4.56Zm5.46-12.8a3.19,3.19,0,0,0-1.71-.41c-.32,0-.53,0-.6.13a1,1,0,0,0-.11.59V24.9a4.73,4.73,0,0,0,.57.08l.25,0a3,3,0,0,0,1.73-.43,3.32,3.32,0,0,0,1.14-2.93A2.94,2.94,0,0,0,253.35,18.88Z" transform="translate(0 0)"/><path class="cls-6" d="M260.36,31.69c.62-.08,1-.24,1.17-.49a3.78,3.78,0,0,0,.23-1.7V20a2.83,2.83,0,0,0-.26-1.48,1.65,1.65,0,0,0-1.15-.46v-.4h4.25a4.23,4.23,0,0,1,3.13,1.08,3.81,3.81,0,0,1,1.09,2.84,4,4,0,0,1-1.19,3.23,4.51,4.51,0,0,1-3,1,5.89,5.89,0,0,1-.66,0l-.6,0v4a2.6,2.6,0,0,0,.28,1.53,2,2,0,0,0,1.25.41v.41h-4.56v-.4m5.46-12.81a3.28,3.28,0,0,0-1.71-.41c-.33,0-.53.05-.6.13a1,1,0,0,0-.12.6v5.71L264,25h.26a3,3,0,0,0,1.73-.43,3.3,3.3,0,0,0,1.14-2.92A3,3,0,0,0,265.82,18.88Z" transform="translate(0 0)"/><path class="cls-7" d="M260.36,31.69c.62-.08,1-.24,1.17-.49a3.78,3.78,0,0,0,.23-1.7V20a2.83,2.83,0,0,0-.26-1.48,1.65,1.65,0,0,0-1.15-.46v-.4h4.25a4.23,4.23,0,0,1,3.13,1.08,3.81,3.81,0,0,1,1.09,2.84,4,4,0,0,1-1.19,3.23,4.51,4.51,0,0,1-3,1,5.89,5.89,0,0,1-.66,0l-.6,0v4a2.6,2.6,0,0,0,.28,1.53,2,2,0,0,0,1.25.41v.41h-4.56Zm5.46-12.81a3.28,3.28,0,0,0-1.71-.41c-.33,0-.53.05-.6.13a1,1,0,0,0-.12.6v5.71L264,25h.26a3,3,0,0,0,1.73-.43,3.3,3.3,0,0,0,1.14-2.92A3,3,0,0,0,265.82,18.88Z" transform="translate(0 0)"/><path class="cls-6" d="M272.89,31.69a2,2,0,0,0,1.24-.39,2.55,2.55,0,0,0,.29-1.54V20a2.71,2.71,0,0,0-.28-1.54,1.84,1.84,0,0,0-1.25-.4v-.41h4.69v.41a1.78,1.78,0,0,0-1.25.41,2.65,2.65,0,0,0-.28,1.53v9.72a2.55,2.55,0,0,0,.29,1.54,2.06,2.06,0,0,0,1.25.39v.41h-4.69v-.41" transform="translate(0 0)"/><path class="cls-7" d="M272.89,31.69a2,2,0,0,0,1.24-.39,2.55,2.55,0,0,0,.29-1.54V20a2.71,2.71,0,0,0-.28-1.54,1.84,1.84,0,0,0-1.25-.4v-.41h4.69v.41a1.78,1.78,0,0,0-1.25.41,2.65,2.65,0,0,0-.28,1.53v9.72a2.55,2.55,0,0,0,.29,1.54,2.06,2.06,0,0,0,1.25.39v.41h-4.69Z" transform="translate(0 0)"/><path class="cls-6" d="M281.64,31.7a1.72,1.72,0,0,0,1.28-.61,5.19,5.19,0,0,0,.29-2.2V19.3L283,19a2.18,2.18,0,0,0-.6-.69,1.81,1.81,0,0,0-.74-.16v-.4h2.77l6.16,10.4V20.88a4.38,4.38,0,0,0-.39-2.32,1.64,1.64,0,0,0-1.14-.46v-.4h3.79v.41a1.62,1.62,0,0,0-1.23.6,4.93,4.93,0,0,0-.31,2.2V32.39H291l-7.09-12v8.47a4.55,4.55,0,0,0,.38,2.33,1.69,1.69,0,0,0,1.11.48v.4h-3.78v-.4" transform="translate(0 0)"/><path class="cls-7" d="M281.64,31.7a1.72,1.72,0,0,0,1.28-.61,5.19,5.19,0,0,0,.29-2.2V19.3L283,19a2.18,2.18,0,0,0-.6-.69,1.81,1.81,0,0,0-.74-.16v-.4h2.77l6.16,10.4V20.88a4.38,4.38,0,0,0-.39-2.32,1.64,1.64,0,0,0-1.14-.46v-.4h3.79v.41a1.62,1.62,0,0,0-1.23.6,4.93,4.93,0,0,0-.31,2.2V32.39H291l-7.09-12v8.47a4.55,4.55,0,0,0,.38,2.33,1.69,1.69,0,0,0,1.11.48v.4h-3.78Z" transform="translate(0 0)"/><path class="cls-6" d="M304.41,17.84a6.22,6.22,0,0,0,1,.35.6.6,0,0,0,.49-.18,1.54,1.54,0,0,0,.25-.53h.34l.12,4.56h-.37a9.33,9.33,0,0,0-1-2.36,2.87,2.87,0,0,0-2.47-1.36,3.35,3.35,0,0,0-2.71,1.58c-.78,1.06-1.18,2.8-1.18,5.23a8.15,8.15,0,0,0,1.17,4.69A3.45,3.45,0,0,0,303,31.51a3.77,3.77,0,0,0,1.43-.3,2,2,0,0,0,.71-.44.86.86,0,0,0,.15-.55V26.77a2.87,2.87,0,0,0-.26-1.56,1.72,1.72,0,0,0-1.15-.38v-.41h4.1v.41a1.24,1.24,0,0,0-.8.26,2.08,2.08,0,0,0-.33,1.39v4.27c0,.26-.46.59-1.39,1a6.41,6.41,0,0,1-2.67.63,5.08,5.08,0,0,1-4-1.85A8.08,8.08,0,0,1,297,25.05a9.29,9.29,0,0,1,1.42-5.19,4.78,4.78,0,0,1,4.15-2.38,4.9,4.9,0,0,1,1.84.36" transform="translate(0 0)"/><path class="cls-7" d="M304.41,17.84a6.22,6.22,0,0,0,1,.35.6.6,0,0,0,.49-.18,1.54,1.54,0,0,0,.25-.53h.34l.12,4.56h-.37a9.33,9.33,0,0,0-1-2.36,2.87,2.87,0,0,0-2.47-1.36,3.35,3.35,0,0,0-2.71,1.58c-.78,1.06-1.18,2.8-1.18,5.23a8.15,8.15,0,0,0,1.17,4.69A3.45,3.45,0,0,0,303,31.51a3.77,3.77,0,0,0,1.43-.3,2,2,0,0,0,.71-.44.86.86,0,0,0,.15-.55V26.77a2.87,2.87,0,0,0-.26-1.56,1.72,1.72,0,0,0-1.15-.38v-.41h4.1v.41a1.24,1.24,0,0,0-.8.26,2.08,2.08,0,0,0-.33,1.39v4.27c0,.26-.46.59-1.39,1a6.41,6.41,0,0,1-2.67.63,5.08,5.08,0,0,1-4-1.85A8.08,8.08,0,0,1,297,25.05a9.29,9.29,0,0,1,1.42-5.19,4.78,4.78,0,0,1,4.15-2.38A4.9,4.9,0,0,1,304.41,17.84Z" transform="translate(0 0)"/><path class="cls-6" d="M322.78,32.11v-.4a1.25,1.25,0,0,0,1-.63,19,19,0,0,0,1.07-2.92l3.34-10.67h.35l4,12.3a6.09,6.09,0,0,0,.62,1.52,1.27,1.27,0,0,0,.79.4v.41h-4.09v-.41a2.66,2.66,0,0,0,.92-.21c.14-.08.21-.28.21-.59a3.87,3.87,0,0,0-.08-.57c-.06-.26-.13-.55-.22-.84L330,27.4h-4.19c-.44,1.42-.7,2.3-.78,2.61a3.16,3.16,0,0,0-.12.75.84.84,0,0,0,.33.76,2,2,0,0,0,.77.19v.41h-3.2m6.93-5.59-1.84-6-1.83,6Z" transform="translate(0 0)"/><path class="cls-7" d="M322.78,32.11v-.4a1.25,1.25,0,0,0,1-.63,19,19,0,0,0,1.07-2.92l3.34-10.67h.35l4,12.3a6.09,6.09,0,0,0,.62,1.52,1.27,1.27,0,0,0,.79.4v.41h-4.09v-.41a2.66,2.66,0,0,0,.92-.21c.14-.08.21-.28.21-.59a3.87,3.87,0,0,0-.08-.57c-.06-.26-.13-.55-.22-.84L330,27.4h-4.19c-.44,1.42-.7,2.3-.78,2.61a3.16,3.16,0,0,0-.12.75.84.84,0,0,0,.33.76,2,2,0,0,0,.77.19v.41Zm6.93-5.59-1.84-6-1.83,6Z" transform="translate(0 0)"/><path class="cls-6" d="M338.77,27.78a8.78,8.78,0,0,0,.94,2.33,2.73,2.73,0,0,0,2.34,1.51,1.68,1.68,0,0,0,1.32-.66,2.77,2.77,0,0,0,.55-1.84,3.14,3.14,0,0,0-.56-1.85,11.54,11.54,0,0,0-1.56-1.5l-1.38-1.16a5.32,5.32,0,0,1-1-1.07,4.05,4.05,0,0,1-.67-2.27,4.47,4.47,0,0,1,.81-2.74,2.51,2.51,0,0,1,2.13-1.1,3.2,3.2,0,0,1,1.31.36,5.32,5.32,0,0,0,.88.35.42.42,0,0,0,.41-.19,1.36,1.36,0,0,0,.18-.52h.31l.34,4.63h-.37a5.34,5.34,0,0,0-1.26-2.92,2.5,2.5,0,0,0-1.7-.83,1.53,1.53,0,0,0-1.15.52,2.12,2.12,0,0,0-.49,1.47,2.61,2.61,0,0,0,.38,1.43A5.35,5.35,0,0,0,341.72,23l1.41,1.18a8.37,8.37,0,0,1,1.87,2,4.2,4.2,0,0,1,.55,2.2,4.32,4.32,0,0,1-.95,2.85,3,3,0,0,1-2.42,1.14,3.71,3.71,0,0,1-1.55-.38,4.32,4.32,0,0,0-.92-.38.37.37,0,0,0-.38.24,2.2,2.2,0,0,0-.13.52h-.34l-.47-4.62h.38" transform="translate(0 0)"/><path class="cls-7" d="M338.77,27.78a8.78,8.78,0,0,0,.94,2.33,2.73,2.73,0,0,0,2.34,1.51,1.68,1.68,0,0,0,1.32-.66,2.77,2.77,0,0,0,.55-1.84,3.14,3.14,0,0,0-.56-1.85,11.54,11.54,0,0,0-1.56-1.5l-1.38-1.16a5.32,5.32,0,0,1-1-1.07,4.05,4.05,0,0,1-.67-2.27,4.47,4.47,0,0,1,.81-2.74,2.51,2.51,0,0,1,2.13-1.1,3.2,3.2,0,0,1,1.31.36,5.32,5.32,0,0,0,.88.35.42.42,0,0,0,.41-.19,1.36,1.36,0,0,0,.18-.52h.31l.34,4.63h-.37a5.34,5.34,0,0,0-1.26-2.92,2.5,2.5,0,0,0-1.7-.83,1.53,1.53,0,0,0-1.15.52,2.12,2.12,0,0,0-.49,1.47,2.61,2.61,0,0,0,.38,1.43A5.35,5.35,0,0,0,341.72,23l1.41,1.18a8.37,8.37,0,0,1,1.87,2,4.2,4.2,0,0,1,.55,2.2,4.32,4.32,0,0,1-.95,2.85,3,3,0,0,1-2.42,1.14,3.71,3.71,0,0,1-1.55-.38,4.32,4.32,0,0,0-.92-.38.37.37,0,0,0-.38.24,2.2,2.2,0,0,0-.13.52h-.34l-.47-4.62Z" transform="translate(0 0)"/></g></g></svg>